<?xml version="1.0" encoding="utf-8"?>
<!-- Generator: Adobe Illustrator 25.4.1, SVG Export Plug-In . SVG Version: 6.00 Build 0)  -->
<svg version="1.1" id="Layer_1" xmlns="http://www.w3.org/2000/svg" xmlns:xlink="http://www.w3.org/1999/xlink" x="0px" y="0px"
	 viewBox="0 0 1198.7 303.8" style="enable-background:new 0 0 1198.7 303.8;" xml:space="preserve">
<style type="text/css">
	.st0{fill:#FFFFFF;}
</style>
<path class="st0" d="M396.8,104.1c14.7,0,36.2,5.5,36.2,21.2v12.1H414v-5.9c0-5.9-9-8.7-16.5-8.7c-16.1,0-26,11.1-26,27.2
	c0,18.2,12.7,28.1,27.7,28.1c12.5,0,22.7-6.9,27.6-10.8l7.8,15.6c-6.1,5.7-19.8,13.7-36.6,13.7c-25.8,0-48.7-17.5-48.7-46.1
	C349.3,124.2,369.6,104.1,396.8,104.1z"/>
<path class="st0" d="M494.8,140h5.5v-3c0-11.3-7.1-15.3-16.3-15.3c-13.2,0-25,8.5-25,8.5l-8.1-15.2c0,0,13.7-10.9,35-10.9
	c23.8,0,36.4,12.3,36.4,34.8v35.4c0,2.6,1.4,3.8,3.8,3.8h8v16.5h-20.8c-8.1,0-11.3-4.3-11.3-9.4v-1c0-1.5,0.1-3,0.5-4.5h-0.4
	c-5.3,10.5-16.1,17.2-27.9,17c-15.1,0-29.3-8.8-29.3-26.9C445,142.7,480.6,140,494.8,140z M480,180.2c12,0,20.5-12.8,20.5-23.9v-2.9
	h-3.6c-8.7,0-29.6,1.4-29.6,14.7C467.2,174.6,471.9,180.2,480,180.2z"/>
<path class="st0" d="M546.1,178.1h12.8v-51.8c0-2.4-1.4-3.6-3.8-3.6h-9.9v-16.5h23.1c7.8,0,11.6,3.6,11.6,9.9v4
	c0,1.3-0.1,2.6-0.3,3.8h0.3c4.5-9,15.6-19.8,30.2-19.8c12.3,0,21.2,5.7,24.6,19.2h0.3c5.8-11.7,17.6-19.2,30.7-19.2
	c17.9,0,28.4,10.4,28.4,33.6v40.4H707v16.5h-34.9v-52.7c0-10.1-1.9-17.7-12.1-17.7c-15.1,0-22.5,15.1-22.5,31.4v22.5h12.8v16.5
	h-34.7v-52.7c0-9.5-1.6-17.7-12-17.7c-15.6,0-22.7,16.5-22.7,32.4v21.5h12.7v16.5h-47.5V178.1z"/>
<path class="st0" d="M724.7,88h-13.5V71.5h35.5v38.3c0,2.5-0.1,5-0.3,7.4h0.3c0,0,8-13.2,26.5-13.2c23.9,0,39.3,18.9,39.3,46.3
	c0,28.1-17.3,46.3-40.7,46.3c-19.2,0-26.3-14-26.3-14h-0.3c0,0,0.3,3.1,0.3,6.6v5.4h-20.8V88z M768,178.1c12.1,0,22.4-9.9,22.4-27.4
	c0-16.8-9-27.7-22-27.7c-11.4,0-22.2,8.3-22.2,27.9C746.2,164.6,753.3,178.1,768,178.1z"/>
<path class="st0" d="M826.8,178.1h12.8v-55.5h-13.7v-16.5h35.7v72h12.7v16.5h-47.5L826.8,178.1z M839.5,71.5h22.2v19.6h-22.2V71.5z"
	/>
<path class="st0" d="M896,122.6h-13.7v-16.5H918v53.1c0,10.6,2.8,17.9,13.9,17.9c15.2,0,24.4-15.6,24.4-31.6v-22.9h-13.5v-16.5h35.5
	v68.3c-0.2,1.9,1.2,3.6,3.1,3.8c0.2,0,0.5,0,0.7,0h8.5v16.3h-21.8c-7.8,0-11.4-3.6-11.4-9.9v-3.3c0-2.2,0.2-4.2,0.2-4.2h-0.3
	c-1,2.9-10.1,19.4-32.2,19.4c-17.7,0-29-9.5-29-33.6L896,122.6z"/>
<path class="st0" d="M1003.8,178.1h12.8v-51.8c0-2.4-1.4-3.6-3.8-3.6h-9.9v-16.5h23.1c7.8,0,11.6,3.6,11.6,9.9v4
	c0,1.3-0.1,2.6-0.3,3.8h0.3c4.5-9,15.6-19.8,30.2-19.8c12.3,0,21.2,5.7,24.6,19.2h0.3c5.8-11.7,17.6-19.2,30.7-19.2
	c17.8,0,28.4,10.4,28.4,33.6v40.4h12.8v16.5h-34.8v-52.7c0-10.1-1.9-17.7-12.1-17.7c-15.1,0-22.5,15.1-22.5,31.4v22.5h12.8v16.5
	h-34.7v-52.7c0-9.5-1.6-17.7-12-17.7c-15.6,0-22.7,16.5-22.7,32.4v21.5h12.7v16.5h-47.5L1003.8,178.1z"/>
<path class="st0" d="M356.6,236.1h5.5v26.4H375v4.6h-18.4V236.1z"/>
<path class="st0" d="M414.6,236.1h18.7v4.6h-13.2v8h11.2v4.6h-11.2v9.2h13.7v4.6h-19.2V236.1z"/>
<path class="st0" d="M480.4,236.1h6.5l10.1,31.1h-5.8l-4.7-16.5c-1-3.3-1.9-6.8-2.8-10.2h-0.2c-0.9,3.4-1.8,7-2.8,10.2l-4.8,16.5
	h-5.6L480.4,236.1z M476.2,254.5h14.6v4.3h-14.6L476.2,254.5z"/>
<path class="st0" d="M534.7,236.1h10.5c6.5,0,11.5,2.3,11.5,9.2c0,6.7-5,9.7-11.5,9.7h-5v12.1h-5.5V236.1z M544.6,250.7
	c4.3,0,6.6-1.8,6.6-5.3s-2.3-4.8-6.6-4.8h-4.4v10.1L544.6,250.7z M544.1,253.6l4-3.3l9.7,16.9h-6.2L544.1,253.6z"/>
<path class="st0" d="M597,236.1h5.7l9.7,17.5l3.2,6.6h0.2c-0.3-3.2-0.7-7.1-0.7-10.6v-13.5h5.2v31.1h-5.7l-9.7-17.5l-3.2-6.6h-0.2
	c0.3,3.3,0.7,7,0.7,10.5v13.6H597V236.1z"/>
<path class="st0" d="M662.3,236.1h5.5v31.1h-5.5V236.1z"/>
<path class="st0" d="M709.9,236.1h5.7l9.7,17.5l3.2,6.6h0.2c-0.3-3.2-0.7-7.1-0.7-10.6v-13.5h5.2v31.1h-5.7l-9.7-17.5l-3.2-6.6h-0.2
	c0.3,3.3,0.7,7,0.7,10.5v13.6h-5.2V236.1z"/>
<path class="st0" d="M773.6,251.8c0-10.2,6.4-16.2,14.7-16.2c3.5,0,6.9,1.4,9.4,3.9l-2.9,3.6c-1.6-1.7-3.9-2.7-6.3-2.7
	c-5.5,0-9.2,4.3-9.2,11.2s3.3,11.4,9.5,11.4c1.6,0.1,3.2-0.4,4.4-1.4v-6.7h-5.8v-4.5h10.8v13.7c-2.7,2.5-6.3,3.8-9.9,3.7
	C779.8,267.8,773.6,262.1,773.6,251.8z"/>
<path class="st0" d="M881.3,251.8c0-10.2,6.4-16.2,14.7-16.2c3.5,0,6.9,1.4,9.4,3.9l-3,3.6c-1.6-1.8-3.9-2.7-6.3-2.7
	c-5.5,0-9.2,4.3-9.2,11.2s3.3,11.4,9.6,11.4c1.6,0.1,3.2-0.4,4.4-1.4v-6.7H895v-4.5h10.8v13.7c-2.7,2.5-6.3,3.8-9.9,3.7
	C887.5,267.8,881.3,262.1,881.3,251.8z"/>
<path class="st0" d="M946.9,236.1h10.5c6.5,0,11.4,2.3,11.4,9.2c0,6.7-5,9.7-11.4,9.7h-5v12.1h-5.5L946.9,236.1z M956.8,250.7
	c4.3,0,6.6-1.8,6.6-5.3s-2.3-4.8-6.6-4.8h-4.4v10.1L956.8,250.7z M956.3,253.6l4-3.3l9.7,16.9h-6.2L956.3,253.6z"/>
<path class="st0" d="M1007.6,251.6c0-10.1,5.6-16,13.7-16c8.1,0,13.7,6,13.7,16c0,10-5.6,16.2-13.7,16.2S1007.6,261.6,1007.6,251.6z
	 M1029.3,251.6c0-7-3.2-11.2-8-11.2s-8,4.2-8,11.2c0,7,3.2,11.4,8,11.4C1026.1,263,1029.3,258.5,1029.3,251.6z"/>
<path class="st0" d="M1075.2,253.6v-17.4h5.5V254c0,6.8,2.5,9,6.3,9s6.4-2.2,6.4-9v-17.9h5.3v17.4c0,10.2-4.5,14.2-11.7,14.2
	S1075.2,263.8,1075.2,253.6z"/>
<path class="st0" d="M1140.7,236.1h9.8c6.9,0,12,2.4,12,9.6c0,6.9-5.1,10.1-11.8,10.1h-4.5v11.4h-5.5L1140.7,236.1z M1150.2,251.4
	c4.6,0,6.8-1.8,6.8-5.7s-2.4-5.2-7-5.2h-3.8v10.8H1150.2z"/>
<path class="st0" d="M30.7,85.7l7.5,1.5c0,0.6,0,1.2,0,1.8v1.2c-0.1,3.6,2.7,6.7,6.3,6.8c3.6,0.1,6.7-2.7,6.8-6.3c0-0.2,0-0.3,0-0.5
	v-1.2c0-6.7,2.8-13.2,7.7-17.8c0.2-0.1,0.3-0.3,0.5-0.4c0.2-0.2,0.3-0.3,0.5-0.5c10.3-8.8,25.8-7.7,34.6,2.6
	c3.8,4.5,5.9,10.2,5.9,16v1.2c-0.1,3.6,2.7,6.7,6.3,6.8c3.6,0.1,6.7-2.7,6.8-6.3c0-0.2,0-0.3,0-0.5v-1.2c0-0.2,0-0.4,0-0.7l8.3-1.7
	c3.6-0.6,6-4,5.4-7.5c-0.6-3.6-4-6-7.5-5.4c-0.2,0-0.3,0.1-0.5,0.1l-8.2,1.7c-1.4-3.5-3.2-6.8-5.6-9.8l5.8-6.5
	c2.4-2.7,2.2-6.8-0.5-9.3c-2.7-2.4-6.8-2.2-9.3,0.5L95.7,57c-4.1-2.5-8.6-4.2-13.3-5v-7.4c0.1-3.6-2.7-6.7-6.3-6.8
	c-3.6-0.1-6.7,2.7-6.8,6.3c0,0.2,0,0.3,0,0.5V52c-4.8,0.8-9.3,2.6-13.5,5.2L51,51.7c-2.4-2.7-6.6-2.9-9.3-0.5
	c-2.7,2.4-2.9,6.6-0.5,9.3l4.9,5.4c-2,2.6-3.7,5.5-5,8.5l-7.8-1.6c-3.6-0.6-7,1.9-7.5,5.4C25.3,81.7,27.4,84.9,30.7,85.7L30.7,85.7z
	"/>
<path class="st0" d="M203.1,234.6c-1.1-2-3.3-3.3-5.6-3.3l0,0c-2.3,0-4.4,1.2-5.6,3.2l-13.8,23.3c-4.3,7.2-12,11.6-20.4,11.7
	c-7,0-12.6-5.7-12.6-12.6c0-7,5.7-12.6,12.6-12.6H175c3.6,0,6.5-2.9,6.5-6.5s-2.9-6.5-6.5-6.5h-17.3c-14.1-0.3-25.8,10.9-26.1,25.1
	c-0.3,14.1,10.9,25.8,25.1,26.1c0.3,0,0.7,0,1,0c13,0,25-6.9,31.6-18l8.1-13.7l18,31.7c1.8,3.1,5.7,4.2,8.8,2.4
	c3.1-1.8,4.2-5.7,2.4-8.8l0,0L203.1,234.6z"/>
<path class="st0" d="M126.9,282.9v-48.7c0-3.3-2.6-5.9-5.9-5.9h-18.5v-15.2c0-3.3-2.6-5.9-5.9-5.9H48c-3.3,0-5.9,2.6-5.9,5.9v48.7
	c0,3.3,2.6,5.9,5.9,5.9h18.4v15.2c0,3.3,2.6,5.9,5.9,5.9c0,0,0,0,0,0H121C124.3,288.8,126.9,286.2,126.9,282.9
	C126.9,282.9,126.9,282.9,126.9,282.9z M53.9,255.9V219h36.9v9.3H72.3c-3.3,0-5.9,2.6-5.9,5.9c0,0,0,0,0,0v21.7L53.9,255.9z
	 M90.8,240.1v15.8H78.2v-15.8L90.8,240.1z M115.1,277H78.2v-9.3h18.5c3.3,0,5.9-2.6,5.9-5.9l0,0v-21.7h12.6V277z"/>
<path class="st0" d="M177,86.1c2.6,2,6.4,1.5,8.4-1.1c0,0,0,0,0-0.1l19.9-26.1l29.3,31.7c2.3,2.4,6.1,2.5,8.5,0.2s2.5-6.1,0.2-8.5
	l0,0l-20.2-21.8l7.8-11.8l24.4,25.8c2.3,2.4,6.1,2.5,8.5,0.2s2.5-6.1,0.2-8.5l-29.7-31.3c-2.3-2.4-6.1-2.6-8.5-0.3
	c-0.4,0.3-0.7,0.7-0.9,1.1l-10.3,15.7l-5.5-5.9c-2.3-2.4-6.1-2.5-8.5-0.3c-0.2,0.2-0.5,0.5-0.7,0.8l-24.2,31.7
	C173.8,80.2,174.3,84,177,86.1C177,86,177,86.1,177,86.1z"/>
<circle class="st0" cx="208.3" cy="90.6" r="12.4"/>
<circle class="st0" cx="69.8" cy="183.8" r="14.2"/>
<path class="st0" d="M244.5,226.9c-11.8,0-21.5,9.6-21.5,21.4s9.6,21.4,21.5,21.4s21.4-9.6,21.4-21.4l0,0
	C265.9,236.5,256.3,226.9,244.5,226.9z M244.5,257.3c-5,0-9-4-9-9s4-9,9-9s9,4,9,9S249.5,257.3,244.5,257.3L244.5,257.3z"/>
<path class="st0" d="M75.9,74c-9.8,0-17.7,7.9-17.7,17.7s7.9,17.7,17.7,17.7s17.7-7.9,17.7-17.7c0,0,0,0,0,0
	C93.6,81.9,85.7,74,75.9,74z M75.9,99.1c-4.1,0-7.4-3.3-7.4-7.4s3.3-7.4,7.4-7.4s7.4,3.3,7.4,7.4C83.3,95.8,80,99.1,75.9,99.1
	L75.9,99.1z"/>
<circle class="st0" cx="195.3" cy="288.8" r="13"/>
<path class="st0" d="M164.5,293.4h-34.4c-2.9,0-5.2,2.3-5.2,5.2c0,2.9,2.3,5.2,5.2,5.2h34.4c2.9,0,5.2-2.3,5.2-5.2
	C169.7,295.7,167.4,293.4,164.5,293.4z"/>
<rect x="15.8" y="212.9" class="st0" width="16.4" height="16.4"/>
<path class="st0" d="M207.9,210.1c-2.7-1-5.7,0.4-6.7,3c-0.9,2.4,0.1,5.1,2.3,6.4c1.4,1.2,6.3,6.4,10.2,10.8
	c1.9,2.1,5.2,2.3,7.3,0.3c2.1-1.9,2.3-5.1,0.4-7.2C210.6,211.1,209.1,210.5,207.9,210.1z"/>
<circle class="st0" cx="102" cy="27.3" r="11.9"/>
<path class="st0" d="M147.4,38c-16.4,7.1-22.7,27.1-23,27.9c-0.7,2.4,0.5,5,2.8,5.9c7,2.9,13.5,4.4,19.4,4.4
	c5.2,0.1,10.3-1.2,14.8-3.7c11.5-6.3,16.1-18.9,17.6-24.6c0.4,0,0.7-0.1,1.1-0.2c9.4-3.5,15.3-8.9,17.5-16.2
	c3.6-12.3-5.5-24.6-5.9-25.2c-1.4-1.9-4-2.6-6.2-1.7c-10.9,4.6-17.3,11-18.9,18.9c-0.8,4.4-0.2,8.9,1.6,13
	C161.4,34.8,154,35.2,147.4,38z M176.9,25.8c0.7-3.5,3.6-6.7,8.7-9.4c1.7,3.4,3.3,8.3,2.1,12.4c-0.9,3.1-3.5,5.8-7.7,7.9
	C178.1,33.8,176.1,29.7,176.9,25.8L176.9,25.8z M169.1,47.2c-1.5,4.7-5,12.8-12.4,16.8c-5.7,3.1-12.8,3.2-21.3,0.5
	c2.4-5.3,7.5-14,15.9-17.6C156.5,44.7,162.5,44.8,169.1,47.2L169.1,47.2z"/>
<path class="st0" d="M139.3,31.8c8.8,0,15.9-7.1,15.9-15.9S148.1,0,139.3,0s-15.9,7.1-15.9,15.9c0,0,0,0,0,0
	C123.4,24.7,130.6,31.8,139.3,31.8z M139.3,9.2c3.7,0,6.7,3,6.7,6.6s-3,6.7-6.6,6.7c-3.7,0-6.7-3-6.7-6.6c0,0,0,0,0,0
	C132.7,12.2,135.6,9.2,139.3,9.2z"/>
<rect x="206" y="18.6" class="st0" width="11.9" height="11.9"/>
<path class="st0" d="M261.1,95l4.4,5.2h-37.9c-3.4,0.1-6.1,3-6,6.5c0.1,3.3,2.7,5.9,6,6h51.4c3.5,0,6.2-2.8,6.2-6.3
	c0-1.5-0.5-2.9-1.5-4L270.6,87c-2.4-2.5-6.4-2.5-8.8-0.1C259.6,89.1,259.3,92.5,261.1,95z"/>
<path class="st0" d="M278.9,201h-51.4c-3.4,0.1-6.1,3-6,6.5c0.1,3.3,2.7,5.9,6,6h37.9l-4.4,5.1c-2.2,2.6-1.9,6.6,0.7,8.8
	c2.6,2.2,6.6,1.9,8.8-0.7l13.1-15.4c2.2-2.6,1.9-6.6-0.7-8.8C281.8,201.5,280.4,201,278.9,201z"/>
<path class="st0" d="M30.4,185.3c7.3-1.1,15.1-4.6,19.9-9.2c1.1-1,2-2.1,2.8-3.3c3-4.8,5-10.1,6.1-15.6c6.9,0.3,13.5-2.7,17.9-8
	c0.6-0.8,2.4-3.3,2.9-4.2c2.6-4.2,5.3-11.2,6.9-22.7c0.4-3.1-1.7-6-4.9-6.5c-3.1-0.4-6,1.7-6.5,4.9c-1.3,9.3-3.9,15.6-5.7,18.8
	c-0.5,0.8-1.1,1.6-1.7,2.3c-1.5,1.7-3.6,3.5-8.2,3.4c-0.6-9.9-4.2-19.9-10.6-29.8C42,104,29.5,92.4,19.9,93.8
	c-5.1,0.7-8.4,4.3-9,9.6c-1.6,15.2,19.9,42.2,36.6,50.5c-0.7,4.4-2.3,8.6-4.7,12.4c-0.7,1.2-3.6,3.4-7.7,5.2
	c0.4-2.3,0.6-4.6,0.5-6.9c-0.2-5.8-3-11.1-7.7-14.6c-7.8-5.8-17.5-5.6-23.4,0.6c-5.3,5.5-7,15.5,1,25.7c3,3.8,7,6.6,11.6,8.1
	c-1.9,3.4-4,6.6-6.4,9.7c-2.1,2.3-2.1,5.9,0.1,8.2c1.1,1.1,2.6,1.8,4.2,1.8h0.2c1.5,0,3-0.6,4.2-1.7
	C23.6,197.1,27.3,191.4,30.4,185.3z M22.9,106.1c3,1.2,9.8,5.7,16.4,15.8c3.5,5.3,6.1,11.2,7.6,17.4
	C33.8,129.8,23.7,112.2,22.9,106.1z M15,168.7c-3.7-4.7-3.3-8.2-1.8-9.7l0.1-0.1c1.3-1.2,4-1.8,7.4,0.8c1.6,1.2,2.6,3,2.8,5
	c0.2,2.9-0.2,5.8-1.2,8.5C19.4,172.6,16.8,171,15,168.7z"/>
<path class="st0" d="M1170,105.6h-6.6v-2.2h15.6v2.2h-6.6v16.2h-2.4V105.6z M1182,103.4h2.2l4.8,10.6c0.2,0.6,0.4,1.1,0.6,1.7h0.1
	c0.1-0.6,0.3-1.2,0.6-1.7l4.8-10.6h2.2l1.5,18.4h-2.4l-1-12.5c0-0.4,0-0.8,0-1.2h-0.1l-4.7,10.3h-2l-4.7-10.3h-0.1
	c0.1,0.4,0.1,0.8,0.1,1.2l-1,12.5h-2.4L1182,103.4z"/>
</svg>
