<?xml version="1.0" encoding="UTF-8"?>
<svg width="100px" height="100px" viewBox="0 0 100 100" version="1.1" xmlns="http://www.w3.org/2000/svg" xmlns:xlink="http://www.w3.org/1999/xlink">
    <title>Icons/Chat</title>
    <g id="Icons/Chat" stroke="none" stroke-width="1" fill="none" fill-rule="evenodd">
        <g id="message" transform="translate(0, 7)" fill="#35302C" fill-rule="nonzero">
            <path d="M85,0 L15,0 C6.71953638,0.00918518124 0.00918521667,6.71951046 0,14.9999421 L0,54.9997879 C0.00918521667,63.2802196 6.71953638,69.9905449 15,69.99973 L21.6666667,69.99973 L21.6666667,83.0746796 C21.6582413,84.376845 22.4152367,85.5625823 23.6,86.1030012 C24.0426005,86.3095239 24.5249215,86.417022 25.0133333,86.418 C25.8013467,86.4160908 26.5629355,86.1336718 27.1616667,85.6213364 L45.61,69.99973 L85,69.99973 C93.2804637,69.9905449 99.9908148,63.2802196 100,54.9997879 L100,14.9999421 C99.9908148,6.71951046 93.2804637,0.00918518124 85,0 Z M96.6666667,54.9997879 C96.659319,61.4400392 91.4402762,66.6590619 85,66.6664095 L45.61,66.6664095 C44.8213692,66.6667239 44.058392,66.9466386 43.4566667,67.4564065 L25,83.0746796 L25,69.99973 C25,68.1587879 23.5076158,66.6664095 21.6666667,66.6664095 L15,66.6664095 C8.5597239,66.6590619 3.34068107,61.4400392 3.33333333,54.9997879 L3.33333333,14.9999421 C3.34068107,8.55969088 8.5597239,3.34066818 15,3.33332048 L85,3.33332048 C91.4402762,3.34066818 96.659319,8.55969088 96.6666667,14.9999421 L96.6666667,54.9997879 Z" id="Shape"></path>
            <path d="M91.6666667,53.3331276 C90.7461922,53.3331276 90,54.0793169 90,54.9997879 C90,57.7612009 87.7614237,59.9997686 85,59.9997686 C84.0795255,59.9997686 83.3333333,60.7459579 83.3333333,61.6664288 C83.3333333,62.5868998 84.0795255,63.333089 85,63.333089 C89.6000887,63.3275789 93.3278232,59.5998588 93.3333333,54.9997879 C93.3333333,54.0793169 92.5871412,53.3331276 91.6666667,53.3331276 Z" id="Path"></path>
            <path d="M15,6.66664095 C10.3999114,6.67215113 6.67217687,10.3998713 6.66666667,14.9999421 C6.66666667,15.9204132 7.41285877,16.6666023 8.33333333,16.6666023 C9.2538079,16.6666023 9.99999998,15.9204132 10,14.9999421 C10,12.238529 12.2385763,9.99996143 15,9.99996143 C15.9204746,9.99996139 16.6666667,9.25377219 16.6666667,8.33330119 C16.6666667,7.41283019 15.9204746,6.66664095 15,6.66664095 Z" id="Path"></path>
        </g>
        <g id="Logo/LAZ-Sun" transform="translate(18, 26)" fill="#35302C">
            <path d="M49.744023,26.0935316 C49.783924,27.2210564 49.1654587,28.2919475 47.6736765,28.5332841 C46.1812508,28.7739772 45.1296666,27.982393 44.9018448,26.5189276 C43.9957062,20.697888 39.6773894,18.7440267 34.7380329,17.8797197 C28.8848151,16.8551653 23.4158052,17.8037791 19.2654587,22.602195 C18.3406567,23.6711554 18.0066468,25.027789 17.8090725,26.437195 C17.5812508,28.062195 16.5238745,28.957393 14.8866468,28.6233831 C13.2590725,28.2913039 12.6953102,27.0254128 12.9308547,25.4538286 C13.4508547,21.9914524 15.3036765,19.3412544 18.0671418,17.272195 C25.3020923,11.8553138 37.3515478,11.8321455 44.5774884,17.2490267 C47.4239735,19.3830861 49.3945676,22.0764029 49.744023,26.0935316" id="Fill-1"></path>
            <path d="M64.8321319,20.2063979 C64.8868349,21.0404574 64.3089141,21.2908039 63.6582706,21.4491207 C60.728122,22.1628336 58.142924,23.6816455 55.5184686,25.0588732 C53.9147062,25.9000118 52.8283696,25.5853088 52.0792607,24.137289 C51.1608943,22.3636257 52.5561418,22.1158534 53.8136666,21.5932791 C56.3641121,20.5320415 58.8019339,19.2030811 61.3343597,18.0942197 C63.2766369,17.2447148 64.9853003,18.3381306 64.8321319,20.2063979" id="Fill-4"></path>
            <path d="M2.32755274,18.4318979 C5.02859234,19.5188781 7.90661215,20.6103633 10.7183448,21.8505118 C11.5569092,22.2212049 11.3039884,23.1196207 10.9442359,23.8198187 C10.4017112,24.8778385 9.57601809,25.5143237 8.35839433,25.0438781 C5.89676066,24.0933336 3.66359234,22.5996207 0.967701256,22.1819475 C-0.0684373581,22.0210564 -0.162397754,21.0370465 0.174186404,20.1302643 C0.517849771,19.2041752 0.940027988,18.3347197 2.32755274,18.4318979" id="Fill-7"></path>
            <path d="M52.6924488,5.87029399 C52.5412112,6.09875933 52.330122,6.43856131 52.0984389,6.76420488 C50.6266072,8.83197715 49.0505181,10.835393 47.70933,12.9842544 C46.7703696,14.4876207 45.6222508,14.8583138 44.2920032,13.9161356 C42.7577458,12.8297989 44.4573993,12.1392544 44.9046765,11.3946504 C46.1570527,9.30821478 47.5265577,7.29064052 48.8516567,5.24796725 C49.4591815,4.31158111 50.3222013,4.06509597 51.3371022,4.42935339 C51.9356171,4.64366032 52.4948745,4.97123458 52.6924488,5.87029399" id="Fill-9"></path>
            <path d="M20.0959141,11.7758336 C20.0077458,12.6253385 19.5353696,13.0108336 18.8724983,13.1871702 C17.9875973,13.4227148 17.1355181,13.3493484 16.5968547,12.5204375 C15.154627,10.3040019 14.1525973,7.81469498 12.324231,5.82865537 C11.7315082,5.18444745 12.3712112,4.67410092 12.9015082,4.30533854 C13.6390329,3.79241775 14.714429,3.35736824 15.229924,4.09167517 C16.9862112,6.59449696 18.5223993,9.25177418 20.0959141,11.7758336" id="Fill-11"></path>
            <path d="M33.578523,4.58187814 C33.7156022,6.28603656 33.943424,7.45861082 33.8668399,8.61123458 C33.7812458,9.91123458 32.7856518,10.3604425 31.5905527,10.2581158 C30.4308498,10.1590069 30.4565923,9.39316527 30.4894141,8.42073953 C30.5537706,6.51771973 30.4591666,4.60118507 30.3008498,2.70073953 C30.1611963,1.02682864 30.6303547,-0.111636708 32.4806022,0.00870982663 C34.3250577,0.128412797 33.8655527,1.37628408 33.6113448,2.58168012 C33.4395131,3.39450191 33.578523,4.27232369 33.578523,4.58187814" id="Fill-13"></path>
            <path d="M24.9302409,27.5311257 C23.8040032,27.5980564 22.4679636,27.8612742 22.4859834,26.2954821 C22.5020725,24.9073138 23.8310329,24.8275118 24.8864785,24.8152841 C26.1002409,24.8011257 27.5083597,25.0636999 27.4189042,26.5567692 C27.3223696,28.1785514 25.7771716,27.3213237 24.9302409,27.5311257" id="Fill-15"></path>
            <path d="M38.0317953,27.4782247 C36.8656567,27.5316405 35.5083795,27.8540663 35.4015478,26.3642148 C35.2998646,24.9483732 36.6513498,24.8402544 37.6997161,24.8093633 C38.883231,24.7746108 40.3138745,24.896888 40.3351121,26.4150564 C40.358924,28.1417395 38.8027854,27.2896603 38.0317953,27.4782247" id="Fill-17"></path>
        </g>
    </g>
</svg>