<?xml version="1.0" encoding="UTF-8"?>
<svg width="100px" height="100px" viewBox="0 0 100 100" version="1.1" xmlns="http://www.w3.org/2000/svg" xmlns:xlink="http://www.w3.org/1999/xlink">
    <title>Icons/Newsletter</title>
    <g id="Icons/Newsletter" stroke="none" stroke-width="1" fill="none" fill-rule="evenodd">
        <g id="send" transform="translate(0.008, 0)" fill="#35302C" fill-rule="nonzero">
            <g id="Group" transform="translate(0.0119, 0)">
                <path d="M65.8957487,84.9742493 C64.5374547,84.9742493 63.3064216,84.176332 62.7435074,82.9230476 L62.7433122,82.922462 L48.5855526,51.3947747 L17.0578703,37.2370128 C15.7790168,36.6625826 14.9742682,35.3929026 15.0072545,34.0022077 C15.0392648,32.659138 15.8643127,31.474754 17.1093992,30.9850342 L95.296888,0.232817813 C96.5546616,-0.261781603 97.9933718,0.046415902 98.9638327,1.01707213 C99.9340984,1.98772837 100.24171,3.42682919 99.7473061,4.68343181 L68.9952899,82.8711283 C68.505375,84.116215 67.3211863,84.941263 65.9781168,84.9732734 C65.9507909,84.9742493 65.9230746,84.9742493 65.8957487,84.9742493 Z M24.246737,34.2602426 L51.6601101,46.5703809 C52.4398751,46.9211288 53.0609544,47.5424035 53.4101408,48.320607 L65.720082,75.7335942 L92.6070406,7.37327969 L24.246737,34.2602426 Z" id="Shape"></path>
                <path d="M50.6642752,52.1462379 C49.9399428,52.1462379 49.2156105,51.8698556 48.6630412,51.3172861 C47.5577073,50.2119521 47.5577073,48.4199563 48.6630412,47.3148175 L66.2476676,29.7301882 C67.3528063,28.6248542 69.1449969,28.6248542 70.2501356,29.7301882 C71.3554695,30.8355223 71.3554695,32.6273228 70.2501356,33.7326569 L52.6655092,51.3172861 C52.1129398,51.8698556 51.3886075,52.1462379 50.6642752,52.1462379 Z" id="Path"></path>
                <path d="M17.3477204,85.4629932 C16.623388,85.4629932 15.8990557,85.1866109 15.3464864,84.6340415 C14.2411525,83.5289026 14.2411525,81.7367117 15.3464864,80.6315728 L35.6274014,60.3506545 C36.7325401,59.2455157 38.5247307,59.2455157 39.6298694,60.3506545 C40.7352033,61.4557934 40.7352033,63.2479843 39.6298694,64.3531232 L19.3489544,84.6340415 C18.796385,85.1866109 18.0720527,85.4629932 17.3477204,85.4629932 L17.3477204,85.4629932 Z" id="Path"></path>
                <path d="M31.0239581,99.9597918 C30.2996257,99.9597918 29.5752934,99.6834095 29.022724,99.1308401 C27.9173902,98.0257012 27.9173902,96.2335103 29.022724,95.1283714 L42.0878368,82.0632566 C43.1929755,80.9581177 44.9851661,80.9581177 46.0903048,82.0632566 C47.1956387,83.1683954 47.1956387,84.9605864 46.0903048,86.0657252 L33.0251921,99.1308401 C32.4726227,99.6834095 31.7482904,99.9597918 31.0239581,99.9597918 L31.0239581,99.9597918 Z" id="Path"></path>
                <path d="M2.83023442,71.7660637 C2.10590209,71.7660637 1.38176494,71.4898766 0.829000406,70.937112 C-0.276333469,69.8319731 -0.276333469,68.0397821 0.829000406,66.9346433 L13.8941132,53.8695284 C14.9994471,52.7641944 16.7912473,52.7641944 17.8965812,53.8695284 C19.0019151,54.9746673 19.0019151,56.7668582 17.8965812,57.8719971 L4.83146844,70.937112 C4.27889909,71.4896814 3.55437157,71.7660637 2.83023442,71.7660637 L2.83023442,71.7660637 Z" id="Path"></path>
            </g>
        </g>
    </g>
</svg>