<?xml version="1.0" encoding="UTF-8"?>
<svg width="9px" height="9px" viewBox="0 0 9 9" version="1.1" xmlns="http://www.w3.org/2000/svg" xmlns:xlink="http://www.w3.org/1999/xlink">
    <title>Icons/Caret-Right</title>
    <g id="Symbols" stroke="none" stroke-width="1" fill="none" fill-rule="evenodd">
        <g id="System/Button-Text" transform="translate(-171, -3)" fill="#35302C" fill-rule="nonzero">
            <g id="Icons/Caret-Right" transform="translate(171, 3.63)">
                <g id="arrow-right-solid" transform="translate(0, -0)">
                    <path d="M8.81165244,4.31290809 C9.06278252,4.061778 9.06278252,3.65394274 8.81165244,3.40281266 L5.59718734,0.188347564 C5.34605726,-0.0627825213 4.938222,-0.0627825213 4.68709191,0.188347564 C4.43596183,0.439477649 4.43596183,0.847312908 4.68709191,1.09844299 L6.80662983,3.21597187 L0.642893019,3.21597187 C0.287292818,3.21597187 0,3.50326469 0,3.85886489 C0,4.21446509 0.287292818,4.50175791 0.642893019,4.50175791 L6.80462079,4.50175791 L4.68910095,6.61928679 C4.43797087,6.87041688 4.43797087,7.27825213 4.68910095,7.52938222 C4.94023104,7.78051231 5.3480663,7.78051231 5.59919638,7.52938222 L8.81366148,4.31491713 L8.81165244,4.31290809 Z" id="Path"></path>
                </g>
            </g>
        </g>
    </g>
</svg>