<?xml version="1.0" encoding="UTF-8"?>
<svg width="100px" height="100px" viewBox="0 0 100 100" version="1.1" xmlns="http://www.w3.org/2000/svg" xmlns:xlink="http://www.w3.org/1999/xlink">
    <title>Icons/account</title>
    <g id="Icons/account" stroke="none" stroke-width="1" fill="none" fill-rule="evenodd">
        <g id="user-(1)" fill="#35302C" fill-rule="nonzero">
            <path d="M85.3553771,14.6446229 C75.9117127,5.2009582 63.3552551,0 50,0 C36.6447449,0 24.0882873,5.2009582 14.6446229,14.6446229 C5.2009582,24.0882873 0,36.6447449 0,50 C0,63.3552551 5.2009582,75.9117127 14.6446229,85.3553771 C24.0882873,94.7990418 36.6447449,100 50,100 C63.3552551,100 75.9117127,94.7990418 85.3553771,85.3553771 C94.7990418,75.9117127 100,63.3552551 100,50 C100,36.6447449 94.7990418,24.0882873 85.3553771,14.6446229 Z M21.7002869,83.8470459 C23.3512879,69.6411133 35.5651855,58.6730957 50,58.6730957 C57.6095582,58.6730957 64.7651672,61.6378785 70.1477051,67.0196533 C74.6948242,71.5675354 77.5627137,77.5054932 78.3004762,83.846283 C70.6329346,90.2679443 60.760498,94.140625 50,94.140625 C39.239502,94.140625 29.3678283,90.2687072 21.7002869,83.8470459 Z M50,52.6382445 C41.6267395,52.6382445 34.8136902,45.8251953 34.8136902,37.4519348 C34.8136902,29.0779113 41.6267395,22.265625 50,22.265625 C58.3732605,22.265625 65.1863098,29.0779113 65.1863098,37.4519348 C65.1863098,45.8251953 58.3732605,52.6382445 50,52.6382445 Z M83.3435059,78.8932801 C81.8504334,72.8736877 78.7368773,67.3233031 74.2904664,62.8768922 C70.6893922,59.275818 66.4291383,56.5742492 61.7828369,54.8812867 C67.3683166,51.0932922 71.0456848,44.6937561 71.0456848,37.4519348 C71.0456848,25.8476258 61.604309,16.40625 50,16.40625 C38.395691,16.40625 28.9543152,25.8476258 28.9543152,37.4519348 C28.9543152,44.6975707 32.6347352,51.0993957 38.2247926,54.8866271 C33.9500428,56.4445496 29.9942016,58.8531494 26.5907287,62.0239258 C21.6621398,66.6137695 18.2395936,72.4662781 16.6526795,78.8887023 C9.9319457,71.1410523 5.859375,61.0374451 5.859375,50 C5.859375,25.6607055 25.6607055,5.859375 50,5.859375 C74.3392945,5.859375 94.140625,25.6607055 94.140625,50 C94.140625,61.039734 90.0665283,71.1456299 83.3435059,78.8932801 L83.3435059,78.8932801 Z" id="Shape"></path>
        </g>
    </g>
</svg>