<?xml version="1.0" encoding="UTF-8"?>
<svg width="100px" height="100px" viewBox="0 0 100 100" version="1.1" xmlns="http://www.w3.org/2000/svg" xmlns:xlink="http://www.w3.org/1999/xlink">
    <title>Icons/Resources</title>
    <g id="Icons/Resources" stroke="none" stroke-width="1" fill="none" fill-rule="evenodd">
        <g id="key-chain" transform="translate(2, 0)" fill="#35302C" fill-rule="nonzero">
            <path d="M54.2766236,61.319731 L32.8307356,90.0786721 C32.2784122,90.8149742 32.4276255,91.8596637 33.1641217,92.4119878 C33.9004227,92.964312 34.9451107,92.8150985 35.497434,92.0786012 L56.9484,63.311262 C57.3056134,62.8349117 57.3815871,62.20427 57.1478067,61.6566332 C56.913831,61.1089963 56.4056466,60.7279551 55.8144575,60.6566686 C55.2232684,60.5853821 54.6391103,60.8349826 54.2818969,61.3113329 L54.2766236,61.319731 Z" id="Path_24_"></path>
            <path d="M1.96507811,69.2294115 L10.8614294,72.2009858 C11.1600512,72.309771 11.4752739,72.366019 11.7930356,72.3675815 C12.3094228,72.3654331 12.8158494,72.2250084 13.2595831,71.9609552 L43.6918581,53.7283987 C44.0773908,54.8246489 44.5435845,55.8910173 45.0867285,56.9183246 L39.7537222,64.0678758 C39.3074497,64.6733231 39.1166364,65.4297415 39.2221012,66.1744417 L39.6621241,69.261051 L36.3538477,70.2410944 C35.1232291,70.5985036 34.2826351,71.7330336 34.2988455,73.0142382 C34.3310708,73.7114791 34.4173958,74.4052045 34.5572344,75.0891646 L34.6873077,75.9225335 L31.3540323,76.9074595 C30.0013479,77.3183825 29.1507933,78.6544679 29.3507859,80.0540276 L29.7124913,82.605695 L26.5092893,83.5589815 C23.9029402,84.3220403 22.3391307,86.9799539 22.9377414,89.6286881 L24.7710722,97.7551577 C25.0468433,99.0549163 26.1889886,99.988477 27.5176505,100 C27.5926477,100 27.6694027,100 27.7459624,99.9900394 L37.0956172,99.350023 C37.9455859,99.3135009 38.7330568,98.8935939 39.2371397,98.208462 L61.1263708,68.8595027 C69.3995029,70.5293654 77.9288755,67.593532 83.4214462,61.1855561 C88.9142122,54.7773849 90.510833,45.8993794 87.5953156,37.9789572 C94.6573596,33.1478785 98.0416097,24.4860763 96.1254695,16.1471142 C94.2093293,7.80815208 87.383214,1.49255573 78.9208311,0.228928664 C70.4584482,-1.0346984 62.0851245,3.01125187 57.8163367,10.4266139 C51.1980263,10.3455621 44.8588072,13.0884336 40.386902,17.967948 C35.9149968,22.8474625 33.7340226,29.4013317 34.3904437,35.9874262 L26.7040086,40.5839429 C26.0764927,40.9782649 25.6257281,41.5999225 25.4456567,42.3188423 L24.683966,45.3353369 L21.2540145,44.9820291 C19.976132,44.8388702 18.7603566,45.5675553 18.2842023,46.7620442 C18.0480782,47.431747 17.8641006,48.118832 17.7342226,48.8170494 L17.5441905,49.6152633 L14.1159968,49.2685959 C12.6947602,49.1010237 11.3692232,50.0129054 11.0178689,51.4001609 L10.3895718,53.9000723 L7.06977249,53.5666857 C5.96668821,53.4428619 4.85364335,53.6866033 3.90328781,54.2600204 C2.59317992,55.0256183 1.6914554,56.3345563 1.44341768,57.8315735 L0.0518674826,66.029525 C-0.220583398,67.4281082 0.604190844,68.8073561 1.96507811,69.2294115 L1.96507811,69.2294115 Z M82.9220506,56.176554 C78.4407707,63.8239391 69.4358297,67.5779076 60.8496232,65.3779856 C60.1959364,65.2115852 59.5065087,65.4557172 59.103008,65.996323 L36.7022724,96.0384217 L27.9375569,96.6384005 L26.1843013,88.9085964 C26.0678993,88.3865446 26.1827388,87.839689 26.4993287,87.4086496 C26.7368199,87.0955748 27.0686436,86.8670673 27.4459734,86.7569149 L31.0491607,85.6852732 C32.4131729,85.2893888 33.2732974,83.94471 33.0608052,82.5404629 L32.6990998,79.9887956 L36.0323752,79.0038696 C37.3985357,78.6070086 38.2586602,77.2584236 38.042262,75.8522235 L37.8440271,74.5655504 C37.7672721,74.0788489 37.6940326,73.6306226 37.6539951,73.3288755 L41.0171522,72.3339889 C42.3756958,71.9334172 43.2297658,70.5910819 43.0170783,69.190741 L42.5471738,65.890858 L48.4020358,58.0393786 C48.80456,57.5001399 48.8434258,56.7716501 48.5002744,56.1927644 C43.4080795,47.6247089 45.4017559,36.6151384 53.1752971,30.3770783 C60.9488383,24.1390183 72.1288943,24.5768934 79.3907356,31.4036044 C80.9953639,32.9025747 82.3376972,34.6595436 83.3622687,36.6016623 C81.4439802,37.5195985 79.3725722,38.0756334 77.2525333,38.2416432 C76.7341931,35.126324 74.0948374,32.8060937 70.9387039,32.6916447 C67.7825704,32.5771956 64.9820878,34.6999719 64.2393418,37.7695896 C63.4965958,40.8392073 65.0172428,44.0074543 67.8767075,45.3482271 C70.7361723,46.6889999 74.1442496,45.831999 76.029141,43.2981045 C76.4066661,42.7778104 76.7048973,42.2043933 76.9140693,41.596407 C79.6002982,41.4645758 82.2351619,40.8095209 84.6704236,39.6681551 C86.5113712,45.1642492 85.8733088,51.188645 82.9220506,56.176554 L82.9220506,56.176554 Z M68.5893765,36.7323217 C69.0516642,36.3514758 69.6086749,36.1030471 70.2010358,36.0139878 C70.3627486,35.9907464 70.5260238,35.9790281 70.689299,35.9790281 C72.0968643,35.9831295 73.3501383,36.8707933 73.8208241,38.1973088 C72.0109299,37.9893084 70.2455654,37.4947947 68.590939,36.7323217 L68.5893765,36.7323217 Z M73.1907692,41.4854735 C72.3521283,42.4659074 71.0207321,42.87019 69.7783952,42.5217648 C68.5360582,42.1733397 67.6091393,41.1356812 67.4025063,39.8620935 C69.2424774,40.6841347 71.1931867,41.2309903 73.1923316,41.4852781 L73.1907692,41.4854735 Z M75.8490695,3.33674862 C83.4067983,3.32588915 90.1149491,8.17532656 92.4740417,15.3555407 C94.8331343,22.5357548 92.3084229,30.4186784 86.2170462,34.8923479 C85.0331055,32.6810982 83.4944904,30.6790207 81.6621362,28.9658002 C81.1621546,28.5040979 80.6488923,28.0857533 80.1254741,27.6724867 C79.8014627,26.4309292 79.3733535,25.2188628 78.8454433,24.049373 C76.1096068,17.9872833 70.8957367,13.3970164 64.5360106,11.4515776 C63.5522578,11.1556896 62.5501464,10.9246431 61.5361213,10.7600005 C64.8051412,6.09239261 70.1508423,3.31983468 75.8490695,3.33674862 L75.8490695,3.33674862 Z M4.74505361,58.3864366 C4.83137855,57.8546195 5.15187453,57.389597 5.61826357,57.11988 C5.95067317,56.9169575 6.34128375,56.8308277 6.72818353,56.8749668 L10.4762874,57.2583516 C11.8856103,57.4194787 13.192398,56.5007613 13.5177767,55.1201462 L14.1478315,52.6202348 L17.6127427,52.9768628 C19.0279248,53.1098659 20.3280721,52.1891954 20.6725907,50.8103381 L20.9659392,49.5787411 C21.0825365,49.0904772 21.185853,48.6354152 21.2641704,48.3338634 L24.7540806,48.6922491 C26.1618412,48.8457593 27.465504,47.9327058 27.8022103,46.5573639 L28.6254221,43.3074792 L37.0233543,38.2877353 C37.6000908,37.9432163 37.9133605,37.286013 37.8182468,36.6211928 C36.3919323,26.9086466 42.2319511,17.5984299 51.5970351,14.6547843 C60.962119,11.7111387 71.0783472,16.0061036 75.4650993,24.788214 C71.7642594,23.0732358 67.6745666,22.3722841 63.613779,22.7566454 C57.0472245,23.3452964 51.0363136,26.6844358 47.0669288,31.9487023 C43.0977394,37.2127734 41.5407656,43.9105828 42.7811495,50.3857438 L11.7430375,68.9811781 L3.41834477,66.2011986 L4.74505361,58.3864366 Z" id="Shape_64_"></path>
            <path d="M38.8021949,48.8834533 C39.5791193,48.4051499 39.8273523,47.3911234 39.3588149,46.6083387 C38.8902776,45.8253586 37.8793774,45.564821 37.0907346,46.0235938 L10.4364451,62.0013475 C9.91751893,62.3032899 9.60112436,62.8608873 9.60785148,63.4612567 C9.61479573,64.061626 9.94427575,64.6118018 10.4700376,64.9016353 C10.9957994,65.1914687 11.6367914,65.1760396 12.1481006,64.8614023 L38.8021949,48.8834533 Z" id="Path_23_"></path>
        </g>
    </g>
</svg>