<?xml version="1.0" encoding="UTF-8"?>
<svg width="100px" height="100px" viewBox="0 0 100 100" version="1.1" xmlns="http://www.w3.org/2000/svg" xmlns:xlink="http://www.w3.org/1999/xlink">
    <title>Icons/Services</title>
    <g id="Icons/Services" stroke="none" stroke-width="1" fill="none" fill-rule="evenodd">
        <g id="pencil-and-ruler" transform="translate(0.029, 0)" fill="#35302C" fill-rule="nonzero">
            <path d="M71.2080789,49.274706 L89.7530158,30.729763 C89.9176079,30.5590831 90.0473319,30.3577276 90.1266727,30.1341028 L99.8834632,2.10991795 C100.082017,1.53934128 99.9367055,0.905431284 99.5094218,0.478435808 C99.0817538,0.0512481143 98.4476518,-0.0934863287 97.8775558,0.10554758 L69.8694298,9.87839088 C69.6473548,9.95920637 69.4411671,10.0875827 69.274731,10.2516635 L50.7298902,28.7965104 L23.5467311,1.61334229 C21.3955127,-0.537972976 17.8955541,-0.53758854 15.7443357,1.61334229 L1.63225044,15.7255283 C-0.518775786,17.8765552 -0.518775786,21.3767072 1.63225044,23.5277342 L28.8155056,50.7109023 L7.43815682,72.0882582 L2.78397496,76.7424416 C0.988730133,78.5376871 0,80.9245562 0,83.4633677 C0,86.0022753 0.988730133,88.3891444 2.78397496,90.1843899 L9.8200277,97.2205411 C11.6731279,99.0735457 14.1070877,100 16.5410476,100 C18.9751997,100 21.4091596,99.0735457 23.2622598,97.2205411 L27.9164416,92.5663576 L49.2936943,71.1890978 L76.408811,98.3042235 C77.4844202,99.3798331 78.8971664,99.9175417 80.3099126,99.9175417 C81.722851,99.9175417 83.1355972,99.379833 84.2112064,98.3042235 L98.3232917,84.1921335 C100.474318,82.0411066 100.474318,78.5410507 98.3232917,76.3898316 L71.2080789,49.274706 Z M67.8680394,48.1610387 C67.8679432,48.1611348 67.8678471,48.1612309 67.867751,48.161327 L48.1802197,67.8488649 C48.1800275,67.8490572 48.1798353,67.8492974 48.179643,67.8494896 L33.6132206,82.415965 L26.7135411,75.5162832 L54.3263384,47.9035728 C54.3860678,47.8588839 54.4442595,47.8111196 54.4985589,47.7568202 L60.9810458,41.2743311 C61.0353452,41.2200317 61.0831095,41.16184 61.1278464,41.1021106 L78.1887751,24.0412243 L78.5521488,29.1193279 C78.608082,29.9002788 79.2293059,30.5215991 80.0102566,30.5774362 L85.0882623,30.94081 L67.8680394,48.1610387 Z M26.803015,89.2261728 L10.7784367,73.2015891 L15.361789,68.6182352 L23.3722522,76.6287011 C23.3725886,76.6290375 23.3728288,76.6293739 23.3731652,76.6297102 C23.3735016,76.6300466 23.3738379,76.6302869 23.3741743,76.6306232 L31.3863674,84.642819 L26.803015,89.2261728 Z M32.154488,51.8255306 C32.1549205,51.8250501 32.155401,51.8247137 32.1558335,51.8242812 L51.8433649,32.1367433 C51.8439415,32.1361667 51.8443259,32.13559 51.8449026,32.1350134 L69.0632995,14.9166107 L69.4261927,19.9933687 C69.4819337,20.7744158 70.1033498,21.3958321 70.8844928,21.4516693 L75.9616335,21.8146587 L24.4866879,73.2894293 L17.5886422,66.3913813 L32.154488,51.8255306 Z M84.9520813,7.95100077 L92.0455569,15.0444787 L87.5489395,27.9597223 L81.5957999,27.5336879 L81.0837515,20.3775974 C81.0390926,19.6149334 80.3880581,18.9640939 79.6254515,18.9193929 L72.4700361,18.4078249 L72.0446265,12.4547314 L84.9520813,7.95100077 Z M93.1956956,11.74091 L88.2537268,6.79893949 L95.8376272,4.15273042 L93.1956956,11.74091 Z M3.85919977,21.3009763 C2.93582118,20.3776935 2.93582118,18.875569 3.85919977,17.9522862 L17.971285,3.84010015 C18.4327821,3.37850681 19.0392058,3.14766207 19.6456295,3.14766207 C20.251861,3.14766207 20.8582847,3.37850681 21.3197818,3.84010015 L23.8235621,6.3438813 L18.4545019,11.7130394 C17.8396209,12.3279206 17.8396209,13.3249161 18.4545019,13.9397973 C18.7620385,14.2472379 19.1651036,14.4010062 19.5679765,14.4010062 C19.9710417,14.4010062 20.3739146,14.2472379 20.6814512,13.9397973 L26.0504154,8.57073525 L32.2778871,14.7982091 L29.8708367,17.2052603 C29.2559557,17.8201415 29.2559557,18.817137 29.8708367,19.4320182 C30.1783733,19.7394588 30.5812462,19.8932271 30.9843114,19.8932271 C31.3873765,19.8932271 31.7902494,19.7394588 32.097786,19.4320182 L34.5047404,17.0250631 L40.7321641,23.2523927 L35.3630558,28.6215029 C34.7481748,29.236384 34.7481748,30.2333795 35.3630558,30.8482607 C35.6705923,31.1557013 36.0734653,31.3094696 36.4765304,31.3094696 C36.8795956,31.3094696 37.2824685,31.1557013 37.5900051,30.8482607 L42.9590173,25.4792467 L48.5030851,31.0233164 L31.0423109,48.4840964 L3.85919977,21.3009763 Z M21.0353105,94.9937832 C18.5575266,97.4715679 14.5251453,97.4717601 12.046977,94.9937832 L5.01092428,87.957632 C3.81037832,86.7571818 3.14917465,85.1610663 3.14917465,83.4633677 C3.14917465,81.7657651 3.81037832,80.1696497 5.01092428,78.9691995 L8.55158342,75.428443 L24.5761618,91.4530267 L21.0353105,94.9937832 Z M96.0963423,81.9653757 L81.9842571,96.0774656 C81.0614551,97.000364 79.5589467,97.0007484 78.6357603,96.0774656 L51.5204995,68.9622919 L68.9812737,51.5015119 L74.5492717,57.0695117 L69.1801634,62.4386218 C68.5652825,63.053503 68.5652825,64.0504985 69.1801634,64.6653797 C69.4877,64.9728203 69.890573,65.1265886 70.2936381,65.1265886 C70.6967032,65.1265886 71.0995762,64.9728203 71.4071128,64.6653797 L76.776125,59.2963657 L83.0035006,65.5237434 L80.596306,67.9309388 C79.9814251,68.54582 79.9814251,69.5428155 80.596306,70.1576967 C80.9038426,70.4651372 81.3067156,70.6189056 81.7097807,70.6189056 C82.1128459,70.6189056 82.5157188,70.4651372 82.8232554,70.1576967 L85.2303539,67.7505974 L91.4578256,73.9780712 L86.0887173,79.3471813 C85.4738363,79.9620625 85.4738363,80.959058 86.0887173,81.5739392 C86.3962539,81.8813798 86.7991268,82.0351481 87.202192,82.0351481 C87.6052571,82.0351481 88.0081301,81.8813798 88.3156666,81.5739392 L93.6846788,76.2049252 L96.0963423,78.6165895 C97.0197209,79.5398723 97.0197209,81.0420929 96.0963423,81.9653757 L96.0963423,81.9653757 Z" id="Shape"></path>
        </g>
    </g>
</svg>