<?xml version="1.0" encoding="utf-8"?>
<!-- Generator: Adobe Illustrator 26.3.1, SVG Export Plug-In . SVG Version: 6.00 Build 0)  -->
<svg version="1.1" id="Layer_1" xmlns="http://www.w3.org/2000/svg" xmlns:xlink="http://www.w3.org/1999/xlink" x="0px" y="0px"
	 viewBox="0 0 304.4 98.2" style="enable-background:new 0 0 304.4 98.2;" xml:space="preserve">
<style type="text/css">
	.st0{fill:#128641;}
</style>
<g>
	<path class="st0" d="M9.2,42.1c0-3.1,2.2-4.8,4.6-4.8c3.3,0,5.1,2.2,7.4,2.2c2.3,0,3.7-2.6,3.7-5.5c0-5.8-7.8-7.4-10.9-7.4
		c-7.4,0-13.8,6.4-13.8,16.8c0,17.2,18.5,11.9,18.5,20.7c0,3.6-2,6.4-5.7,6.4c-3.6,0-6.7-2.9-9.3-2.9C1.4,67.6,0,70,0,72.9
		c0,7,9.2,8.3,13.5,8.3c7.7,0,14.2-6.6,14.2-17.2C27.7,44.9,9.2,49.8,9.2,42.1z"/>
	<path class="st0" d="M46.8,49.8c2.6,0,4.3,2.1,6.3,2.1c1.9,0,3.1-2.9,3.1-5.1c0-5.2-6.6-6.7-9.8-6.7c-8.4,0-14.3,9.8-14.3,20.7
		c0,11.1,5.7,20.5,14.3,20.5c2.9,0,9.8-1.9,9.8-7.3c0-2.5-1.6-4.7-3.4-4.7c-0.9,0-3.9,2.2-5.9,2.2c-4.3,0-6.7-5.5-6.7-10.7
		C40.1,55.2,42.3,49.8,46.8,49.8z"/>
	<path class="st0" d="M84.7,29.1l2,0.9l3.2,1.4c1.1,0.5,1.7,1.3,2.9,1c1.5-0.3,2.6-2.7,1.8-3.9c-0.2-0.3-1.8-0.4-2.9-0.8l-5.4-2.4
		c-1-0.4-2-1-2.9-0.8c-1.3,0.4-2.1,3.2-1.4,4C82.7,29.2,83.7,28.7,84.7,29.1z"/>
	<path class="st0" d="M65.1,40.4c-2.3,0-4,2.4-4,5.9v28.4c0,3.6,1.7,5.9,4,5.9c2.3,0,4-2.4,4-5.9V46.4
		C69.1,42.8,67.4,40.4,65.1,40.4z"/>
	<path class="st0" d="M65.1,24.4c-2.4,0-4.5,2.8-4.5,5.8c0,3.3,2.1,6.1,4.5,6.1c2.5,0,4.5-2.8,4.5-6.1
		C69.6,27.2,67.5,24.4,65.1,24.4z"/>
	<path class="st0" d="M100.6,16.5c0.4,0.5,0.3,1,0.8,1.5c1.1,0.9,3.9,0.4,3.9-1c0-0.7-0.8-1-1.2-1.7L100.6,9c-0.3-0.6-0.4-1-1-1.4
		c-1.3-0.9-3.9,0.4-3.8,1.9l1.3,1.1L100.6,16.5z"/>
	<path class="st0" d="M136.6,19.3c0.5-0.4,0.4-0.9,0.8-1.5l4.5-6.6l1.4-1.1c0.1-1.5-2.5-2.8-3.8-1.9c-0.6,0.3-0.6,0.8-1,1.3
		l-4.6,7.1c-0.4,0.7-1.2,0.9-1.2,1.7C132.7,19.6,135.5,20.2,136.6,19.3z"/>
	<path class="st0" d="M144.4,32.8c1.3,0.2,1.7-0.6,2.8-1.1l5.5-2.6l2-0.9c0.9-0.4,2,0.1,2.5-0.7c0.6-0.8-0.4-3.6-1.7-4
		c-0.9-0.2-1.8,0.4-2.8,0.9l-7.7,3.7c-1,0.5-2.6,0.6-2.8,0.9C141.6,30.2,142.9,32.5,144.4,32.8z"/>
	<path class="st0" d="M117.5,11.8c0.1,1-0.5,2.3-0.3,2.6c1,1.1,2.8,0.7,3.7-0.4c0.8-0.9,0.1-1.6,0-2.7l-0.2-5.4
		c0-0.9,0.9-1.5,0.4-2.3c-0.6-0.9-2.8-1-3.7,0c-0.6,0.6-0.4,1.6-0.3,2.6L117.5,11.8z"/>
	<path class="st0" d="M123.2,40c-3.8,0-6.2,1.5-7.7,4.4c-0.3-2.4-1.6-3.9-3.7-3.9c-2.3,0-4,2.4-4,5.9v28.4c0,3.6,1.7,5.9,4,5.9
		c2.3,0,4-2.4,4-5.9V56.2c0-4.1,1.8-7.3,5.1-7.3c2.9,0,5.2,2.4,5.2,7.3v18.6c0,3.6,1.7,5.9,4,5.9s4-2.4,4-5.9V54.4
		C134.1,45.3,129.4,40,123.2,40z"/>
	<path class="st0" d="M154.4,49.8c2.6,0,4.3,2.1,6.3,2.1c1.9,0,3.1-2.9,3.1-5.1c0-5.2-6.6-6.7-9.8-6.7c-8.4,0-14.3,9.8-14.3,20.7
		c0,11.1,5.7,20.5,14.3,20.5c2.9,0,9.8-1.9,9.8-7.3c0-2.5-1.6-4.7-3.4-4.7c-0.9,0-3.9,2.2-5.9,2.2c-4.3,0-6.7-5.5-6.7-10.7
		C147.7,55.2,149.9,49.8,154.4,49.8z"/>
	<path class="st0" d="M195.8,59.4c0-8.9-5.7-19.4-14.4-19.4c-8.4,0-14.3,9.8-14.3,20.7c0,11.8,6,20.5,15,20.5c5.9,0,13.1-4.4,13.1-9
		c0-2.3-1.6-4.6-3.3-4.6c-2.1,0-4.9,4.3-9.1,4.3c-3.7,0-7-2.4-7.6-7.7h17C194.8,64.1,195.8,62.6,195.8,59.4z M175.1,57
		c0.4-4.5,2.8-8.1,6.3-8.1c3.7,0,5.9,3.5,6.4,8.1H175.1z"/>
	<path class="st0" d="M102.7,59.4c0-8.9-5.7-19.4-14.4-19.4C79.9,40,74,49.8,74,60.6c0,11.8,6,20.5,15,20.5c5.9,0,13.1-4.4,13.1-9
		c0-2.3-1.6-4.6-3.3-4.6c-2.1,0-4.9,4.3-9.1,4.3c-3.7,0-7-2.4-7.6-7.7h17C101.7,64.1,102.7,62.6,102.7,59.4z M82,57
		c0.4-4.5,2.8-8.1,6.3-8.1c3.7,0,5.9,3.5,6.4,8.1H82z"/>
	<path class="st0" d="M110.7,34.9c1.2,0,2,0.5,2.7-0.1c0.7-0.6,0.3-2.1-0.7-2.5c-1.8-0.7-3.5-0.4-4.4,0.3c-1,0.8-0.3,2,0.3,2.4
		C109.2,35.4,109.9,35,110.7,34.9z"/>
	<path class="st0" d="M123.8,35c0.6,0.4,1.3,0,2.1-0.1c1.2,0,2,0.5,2.7-0.1c0.7-0.6,0.3-2.1-0.7-2.5c-1.8-0.7-3.5-0.4-4.4,0.3
		C122.5,33.3,123.1,34.6,123.8,35z"/>
	<path class="st0" d="M118.2,18.4c-11.8,0-21.4,7-21.4,15.6c0,1.4,1.3,2.5,2.9,2.5c1.6,0,2.8-1.1,2.8-2.5c0-5.8,7-10.6,15.7-10.6
		c8.7,0,15.8,4.7,15.8,10.5c0,1.4,1.3,2.5,2.9,2.5c1.6,0,2.8-1.1,2.8-2.5C139.7,25.3,130.1,18.3,118.2,18.4z"/>
	<path class="st0" d="M272,54.1h-18.2c-2.1,0.2-3.2,2.1-3.2,4.7c0,2.5,1.1,4.4,3.2,4.6H272c2.1-0.2,3.2-2.1,3.2-4.6
		C275.2,56.2,274.1,54.4,272,54.1z"/>
	<path class="st0" d="M239.2,32.8c-0.9-3.6-3-6.1-5.9-6.1c-2.8,0-5,2.7-5.9,6.1l-11.2,40.3c-0.1,0.4-0.4,1.3-0.4,2.4
		c0,3,1.9,5.2,4.1,5.2c2.3,0,3.4-1.6,4-3.9l1.7-6.9H241l1.7,7c0.6,2.2,1.7,3.8,4.1,3.8c2.1,0,3.8-2,3.8-4.9c0-0.5-0.1-1.6-0.4-2.7
		L239.2,32.8z M228,59.7l5.3-21.5h0.1l5.2,21.5H228z"/>
	<path class="st0" d="M300.4,70.5h-16.1l17.8-32.9c0.7-1.3,1.2-3.1,1.2-4.7c0-2.6-1.4-5.3-4.7-5.3h-20.3c-2.1,0-3.9,2.2-3.9,5
		c0,3,1.7,4.7,3.9,4.7h14.6L275,70.6c-0.7,1.3-1.1,2.8-1.1,4.3c0,3.1,1.7,5.3,4.7,5.3h21.8c2,0,4-2.1,4-4.9
		C304.4,72.2,302.8,70.5,300.4,70.5z"/>
</g>
</svg>
