<?xml version="1.0" encoding="UTF-8"?>
<svg width="148px" height="49px" viewBox="0 0 148 49" version="1.1" xmlns="http://www.w3.org/2000/svg" xmlns:xlink="http://www.w3.org/1999/xlink">
    <title>Logo/Logo 3</title>
    <g id="Logo/Logo-3" stroke="none" stroke-width="1" fill="none" fill-rule="evenodd">
        <g id="Group" fill="#C83192">
            <g id="LAZ-Sun" transform="translate(23.052, 0)">
                <path d="M38.0481113,19.8221632 C38.0786307,20.6786965 37.6055801,21.4922076 36.4645487,21.6755409 C35.323025,21.8583854 34.5186913,21.257052 34.3444354,20.1453187 C33.6513499,15.7233187 30.3483642,14.239052 26.5703588,13.5824743 C22.093361,12.8041632 17.9102354,13.5247854 14.7357264,17.1699409 C14.0283657,17.9819854 13.7728889,19.0125632 13.6217687,20.0832298 C13.4475128,21.3176743 12.6387489,21.9977187 11.3864694,21.7439854 C10.1415735,21.4917187 9.71036407,20.5300743 9.89052693,19.3362076 C10.2882635,16.7059854 11.7054462,14.6927409 13.8191602,13.1209632 C19.353015,9.00598538 28.569379,8.98838538 34.0963423,13.1033632 C36.2735563,14.7245187 37.7808205,16.7705187 38.0481113,19.8221632" id="Fill-1"></path>
                <path d="M49.5886746,15.3499543 C49.6305157,15.9835543 49.1884768,16.173732 48.6908138,16.2939987 C46.4496075,16.8361765 44.4722463,17.9899543 42.4648579,19.0361765 C41.2381753,19.6751543 40.4072602,19.4360876 39.8342833,18.3360876 C39.131845,16.9887098 40.1990392,16.8004876 41.1608923,16.4035098 C43.1116721,15.597332 44.9763085,14.5877765 46.9133053,13.7454209 C48.3989106,13.1000876 49.7058297,13.9307098 49.5886746,15.3499543" id="Fill-4"></path>
                <path d="M1.780294,14.0019409 C3.8462599,14.8276743 6.04759407,15.6568298 8.19822667,16.5989187 C8.83962614,16.8805187 8.64617258,17.5630076 8.37100581,18.0949187 C7.95604053,18.898652 7.32448603,19.3821632 6.39315234,19.0247854 C4.51030279,18.3026965 2.80220136,17.1679854 0.740173448,16.8506965 C-0.0523462329,16.7284743 -0.124214477,15.9809632 0.133231357,15.2921187 C0.396091922,14.5886076 0.719006774,13.9281187 1.780294,14.0019409" id="Fill-7"></path>
                <path d="M40.3032974,4.45941649 C40.1876191,4.63297205 40.0261616,4.89110538 39.8489523,5.13848316 C38.7231805,6.70928316 37.5176646,8.23119427 36.4918192,9.86359427 C35.773629,11.0056387 34.8954581,11.2872387 33.877981,10.5715054 C32.7044612,9.74626093 34.0044888,9.22168316 34.3466013,8.65603871 C35.3045164,7.07106093 36.3520207,5.53839427 37.3655599,3.98666093 C37.8302422,3.2753276 38.4903471,3.08808316 39.2666226,3.36479427 C39.7244135,3.52759427 40.1521772,3.77643871 40.3032974,4.45941649" id="Fill-9"></path>
                <path d="M15.3709236,8.9456076 C15.3034856,9.59094093 14.9421754,9.88378538 14.4351597,10.0177409 C13.7583183,10.1966743 13.1065816,10.1409409 12.6945699,9.51125205 C11.5914415,7.82751871 10.825011,5.93649649 9.42653373,4.42778538 C8.97317309,3.9384076 9.46246785,3.55071871 9.86808041,3.27058538 C10.4321969,2.88094093 11.2547437,2.55045205 11.6490346,3.10827427 C12.99238,5.00956316 14.1673766,7.02818538 15.3709236,8.9456076" id="Fill-11"></path>
                <path d="M25.6834752,3.48066093 C25.7883241,4.77523871 25.9625799,5.66599427 25.9040024,6.54159427 C25.8385334,7.52914982 25.0770253,7.87039427 24.1629203,7.79266093 C23.275889,7.71737205 23.2955789,7.13559427 23.3206836,6.39688316 C23.3699084,4.95123871 23.2975479,3.4953276 23.1764548,2.05163871 C23.069637,0.780038713 23.4284859,-0.0848057317 24.8436997,0.00661649052 C26.2544831,0.0975498239 25.9030179,1.04550538 25.7085798,1.96119427 C25.5771496,2.57866093 25.6834752,3.24550538 25.6834752,3.48066093" id="Fill-13"></path>
                <path d="M19.068594,20.9142432 C18.2071595,20.9650876 17.1852522,21.1650432 17.1990351,19.9755765 C17.2113413,18.9210432 18.227834,18.8604209 19.0351211,18.851132 C19.9635013,18.8403765 21.0405405,19.0398432 20.972118,20.1740654 C20.8982807,21.4060654 19.7163927,20.7548654 19.068594,20.9142432" id="Fill-15"></path>
                <path d="M29.0896854,20.8740565 C28.1977316,20.9146343 27.15958,21.1595676 27.0778668,20.0277898 C27.0000916,18.9522343 28.0338129,18.8701009 28.8356853,18.8466343 C29.7409298,18.8202343 30.8351977,18.9131232 30.8514419,20.066412 C30.8696551,21.3781009 29.6793988,20.730812 29.0896854,20.8740565" id="Fill-17"></path>
            </g>
            <g id="Raz-Plus" transform="translate(0, 17.214)" fill-rule="nonzero">
                <path d="M6.426,19.404 L14.322,29.232 C15.54,30.786 16.254,31.248 17.388,31.248 C19.152,31.248 20.622,29.82 20.622,28.098 C20.622,27.174 20.286,26.544 19.068,25.2 L13.608,19.152 C15.876,18.648 16.884,18.186 17.976,17.136 C19.404,15.792 20.16,13.734 20.16,11.466 C20.16,6.174 16.296,2.772 10.374,2.772 L4.662,2.772 L3.864,2.772 C2.394,2.772 1.428,3.192 0.672,4.2 C0.126,4.956 0,5.46 0,7.434 L0,26.922 C0,28.518 0.042,28.854 0.42,29.61 C0.924,30.534 2.058,31.206 3.234,31.206 C4.368,31.206 5.502,30.534 6.006,29.61 C6.342,28.854 6.426,28.476 6.426,26.922 L6.426,19.404 Z M6.426,14.91 L6.426,8.358 L10.29,8.358 C12.306,8.358 13.86,9.828 13.86,11.76 C13.86,13.608 12.432,14.91 10.416,14.91 L6.426,14.91 Z" id="Shape"></path>
                <path d="M43.68,12.348 C43.68,10.584 42.336,9.198 40.614,9.198 C39.144,9.198 38.22,9.87 37.548,11.508 C35.784,9.702 34.482,9.072 32.298,9.072 C29.904,9.072 27.72,10.038 25.872,11.886 C23.646,14.07 22.638,16.632 22.638,20.034 C22.638,23.772 23.856,26.712 26.292,28.854 C28.056,30.408 30.114,31.206 32.382,31.206 C34.65,31.206 35.91,30.576 37.464,28.644 C38.094,30.282 39.102,31.08 40.572,31.08 C42.42,31.08 43.68,29.61 43.68,27.426 L43.68,12.348 Z M33.054,14.826 C35.616,14.826 37.338,16.968 37.338,20.118 C37.338,23.268 35.616,25.452 33.096,25.452 C30.492,25.452 28.812,23.31 28.812,20.076 C28.812,16.968 30.534,14.826 33.054,14.826 Z" id="Shape"></path>
                <path d="M54.516,25.2 L62.832,13.86 C63.378,13.104 63.672,12.39 63.672,11.718 C63.672,10.458 62.58,9.492 61.152,9.492 L49.266,9.492 C47.88,9.492 47.586,9.534 46.914,9.87 C46.116,10.29 45.528,11.298 45.528,12.264 C45.528,13.272 46.116,14.28 46.956,14.7 C47.586,15.036 47.922,15.078 49.266,15.078 L54.81,15.078 L46.2,26.838 C45.696,27.51 45.486,28.056 45.486,28.686 C45.486,30.072 46.536,30.786 48.678,30.786 L60.564,30.786 C61.95,30.786 62.244,30.744 62.916,30.408 C63.714,29.988 64.302,28.98 64.302,27.972 C64.302,26.964 63.714,25.998 62.916,25.578 C62.244,25.242 61.908,25.2 60.564,25.2 L54.516,25.2 Z" id="Path"></path>
                <path d="M67.83,16.59 C66.528,16.59 66.234,16.632 65.604,16.926 C64.848,17.304 64.302,18.27 64.302,19.194 C64.302,20.16 64.848,21.084 65.604,21.504 C66.234,21.798 66.528,21.84 67.83,21.84 L71.148,21.84 C72.45,21.84 72.744,21.798 73.374,21.504 C74.13,21.084 74.676,20.16 74.676,19.194 C74.676,18.27 74.13,17.304 73.374,16.926 C72.744,16.632 72.45,16.59 71.148,16.59 L67.83,16.59 Z" id="Path"></path>
                <path d="M83.202,21.588 L88.074,21.588 C91.182,21.588 93.534,20.622 95.172,18.606 C96.516,16.968 97.314,14.574 97.314,12.222 C97.314,9.492 96.222,6.804 94.374,5.082 C92.652,3.486 90.426,2.772 87.234,2.772 L81.438,2.772 L80.64,2.772 C79.17,2.772 78.204,3.192 77.448,4.2 C76.902,4.956 76.776,5.46 76.776,7.434 L76.776,26.922 C76.776,28.476 76.818,28.854 77.196,29.61 C77.7,30.534 78.834,31.206 80.01,31.206 C81.144,31.206 82.278,30.534 82.782,29.61 C83.118,28.854 83.202,28.476 83.202,26.922 L83.202,21.588 Z M83.202,16.002 L83.202,8.358 L86.772,8.358 C89.166,8.358 90.72,9.912 90.72,12.222 C90.72,14.49 89.04,16.002 86.436,16.002 L83.202,16.002 Z" id="Shape"></path>
                <path d="M105.84,4.074 C105.84,2.562 105.798,2.226 105.42,1.512 C104.958,0.63 103.866,0 102.774,0 C101.64,0 100.548,0.63 100.086,1.554 C99.708,2.226 99.666,2.604 99.666,4.074 L99.666,26.964 C99.666,28.476 99.708,28.812 100.086,29.526 C100.548,30.45 101.64,31.08 102.774,31.08 C103.866,31.08 104.958,30.45 105.42,29.526 C105.798,28.812 105.84,28.434 105.84,26.964 L105.84,4.074 Z" id="Path"></path>
                <path d="M128.604,13.314 C128.604,11.802 128.562,11.466 128.184,10.752 C127.722,9.828 126.63,9.198 125.538,9.198 C124.404,9.198 123.312,9.828 122.85,10.752 C122.472,11.466 122.43,11.844 122.43,13.314 L122.43,21.714 C122.43,23.016 122.178,23.646 121.464,24.36 C120.792,24.99 119.952,25.326 119.028,25.326 C118.104,25.326 117.264,24.99 116.592,24.36 C115.878,23.646 115.626,23.016 115.626,21.714 L115.626,13.314 C115.626,11.802 115.584,11.466 115.206,10.752 C114.744,9.828 113.652,9.198 112.56,9.198 C111.426,9.198 110.334,9.828 109.872,10.752 C109.494,11.466 109.452,11.844 109.452,13.314 L109.452,22.47 C109.452,24.654 109.914,26.25 110.964,27.552 C112.728,29.82 115.794,31.206 119.028,31.206 C122.262,31.206 125.328,29.82 127.092,27.552 C128.142,26.25 128.604,24.654 128.604,22.47 L128.604,13.314 Z" id="Path"></path>
                <path d="M140.112,9.072 C135.576,9.072 132.174,11.928 132.174,15.75 C132.174,17.766 132.804,19.152 134.274,20.202 C135.324,20.958 136.164,21.378 139.23,22.512 C141.12,23.226 141.582,23.604 141.582,24.318 C141.582,25.116 140.784,25.746 139.776,25.746 C139.104,25.746 138.306,25.536 137.298,25.074 C134.82,23.982 134.82,23.982 134.106,23.982 C132.804,23.982 131.544,25.326 131.544,26.754 C131.544,29.106 135.24,31.206 139.44,31.206 C144.27,31.206 147.588,28.392 147.588,24.318 C147.588,22.806 147.042,21.504 146.076,20.454 C144.984,19.362 144.102,18.858 141.372,17.766 C138.474,16.632 138.138,16.422 138.138,15.624 C138.138,14.952 138.768,14.532 139.776,14.532 C140.406,14.532 141.204,14.742 142.128,15.162 C144.018,16.002 144.06,16.002 144.732,16.002 C145.992,16.002 147.126,14.7 147.126,13.314 C147.126,11.046 143.85,9.072 140.112,9.072 Z" id="Path"></path>
            </g>
        </g>
    </g>
</svg>