<?xml version="1.0" encoding="UTF-8"?>
<svg width="130px" height="33px" viewBox="0 0 130 33" version="1.1" xmlns="http://www.w3.org/2000/svg" xmlns:xlink="http://www.w3.org/1999/xlink">
    <title>image</title>
    <g id="Navigation-HG" stroke="none" stroke-width="1" fill="none" fill-rule="evenodd">
        <g id="D_V1-Company" transform="translate(-451, -452)" fill="#31409A" fill-rule="nonzero">
            <g id="Group-6" transform="translate(151, 156)">
                <g id="Group-4" transform="translate(300, 16)">
                    <g id="Group-7" transform="translate(0, 248)">
                        <g id="image" transform="translate(0, 32)">
                            <path d="M43.0198973,11.2712679 C44.6180389,11.2712679 46.9481417,11.8736923 46.9481417,13.565475 L46.9481417,14.8795719 L44.880234,14.8795719 L44.880234,14.2412517 C44.880234,13.6029314 43.9032451,13.3048406 43.0948102,13.3048406 C41.3468429,13.3048406 40.2762129,14.5081288 40.2762129,16.2545354 C40.2762129,18.2288021 41.6480551,19.2994321 43.2836531,19.2994321 C44.6367671,19.2994321 45.7448535,18.5487426 46.2708044,18.135161 L47.1166957,19.825383 C46.4596473,20.449657 44.9738751,21.3111552 43.1509949,21.3111552 C40.3511258,21.3111552 37.8711971,19.4133621 37.8711971,16.3169629 C37.8711971,13.451545 40.0702024,11.2712679 43.0198973,11.2712679 Z M53.6387988,15.1620559 L54.2365412,15.1620559 L54.2365412,14.8499188 C54.2365412,13.6294631 53.4655628,13.1971533 52.4698457,13.1971533 C51.0418188,13.1971533 49.7636177,14.1179575 49.7636177,14.1179575 L48.8802699,12.4636313 C49.9900788,11.6799138 51.3172464,11.2629911 52.6758561,11.2712679 C55.2494259,11.2712679 56.6212681,12.6056537 56.6212681,15.0496865 L56.6212681,18.8827292 C56.6061837,18.9963769 56.644879,19.1105681 56.7259449,19.1916339 C56.8070107,19.2726998 56.9212019,19.3113951 57.0348496,19.2963107 L57.8994692,19.2963107 L57.8994692,21.0817345 L55.6489612,21.0817345 C54.7656135,21.0817345 54.4269448,20.613529 54.4269448,20.0672892 L54.4269448,19.9549198 C54.4239571,19.7902234 54.4433836,19.6258858 54.4846901,19.4664254 L54.4472337,19.4664254 C53.875538,20.607239 52.7032757,21.3221069 51.427308,21.3080338 C49.79171,21.3080338 48.2513062,20.3497732 48.2513062,18.3942347 C48.2450711,15.4632681 52.0968419,15.1620559 53.6387988,15.1620559 L53.6387988,15.1620559 Z M52.0406573,19.5226101 C53.3375866,19.5226101 54.2583908,18.1320396 54.2583908,16.9287514 L54.2583908,16.608811 L53.8635375,16.608811 C52.9271264,16.608811 50.6500726,16.7648795 50.6500726,18.2069525 C50.6469655,18.9201856 51.1573095,19.5226101 52.0406573,19.5226101 L52.0406573,19.5226101 Z M59.2010806,19.2963107 L60.591651,19.2963107 L60.591651,13.6778443 C60.6029908,13.5666332 60.5623254,13.4564196 60.48147,13.3792256 C60.4006147,13.3020316 60.2886361,13.2665135 60.1780694,13.282991 L59.1074394,13.282991 L59.1074394,11.4975672 L61.6045356,11.4975672 C62.450427,11.4975672 62.8640085,11.8924206 62.8640085,12.5681972 L62.8640085,13.000507 C62.8623478,13.1391344 62.8498239,13.2774184 62.8265521,13.4140885 L62.8640085,13.4140885 C63.352503,12.4370997 64.5557912,11.2712679 66.1336438,11.2712679 C67.4680296,11.2712679 68.4278509,11.8955419 68.8024154,13.3579039 L68.8398718,13.3579039 C69.4664247,12.0895111 70.754152,11.2823421 72.1688132,11.2712679 C74.1040627,11.2712679 75.2511663,12.3996432 75.2511663,14.918589 L75.2511663,19.2963107 L76.6417367,19.2963107 L76.6417367,21.0817345 L72.863318,21.0817345 L72.863318,15.3680663 C72.863318,14.2755867 72.6573076,13.451545 71.5476605,13.451545 C69.9136232,13.451545 69.1051883,15.087143 69.1051883,16.8538385 L69.1051883,19.2963107 L70.4957587,19.2963107 L70.4957587,21.0817345 L66.737629,21.0817345 L66.737629,15.3680663 C66.737629,14.3348928 66.5675143,13.451545 65.4406996,13.451545 C63.7567204,13.451545 62.9763778,15.2369688 62.9763778,16.9662079 L62.9763778,19.2963107 L64.3482201,19.2963107 L64.3482201,21.0817345 L59.1979592,21.0817345 L59.2010806,19.2963107 Z M78.558258,9.52330056 L77.0927747,9.52330056 L77.0927747,7.73943747 L80.9445455,7.73943747 L80.9445455,11.8924206 C80.9445455,12.3606261 80.9070891,12.7008554 80.9070891,12.7008554 L80.9445455,12.7008554 C80.9445455,12.7008554 81.8091651,11.2712679 83.8208882,11.2712679 C86.4131862,11.2712679 88.0862406,13.3204474 88.0862406,16.2904312 C88.0862406,19.3337672 86.2134185,21.3080338 83.6695017,21.3080338 C81.5844264,21.3080338 80.813448,19.7848052 80.813448,19.7848052 L80.7759916,19.7848052 C80.7759916,19.7848052 80.813448,20.1234738 80.813448,20.499599 L80.813448,21.0817345 L78.558258,21.0817345 L78.558258,9.52330056 Z M83.2559202,19.2963107 C84.5715777,19.2963107 85.6812249,18.2256807 85.6812249,16.331009 C85.6812249,14.5081288 84.704236,13.3235688 83.2933766,13.3235688 C82.0541927,13.3235688 80.8883609,14.2256448 80.8883609,16.3497372 C80.8883609,17.8308274 81.6593393,19.2963107 83.2559202,19.2963107 Z M89.6266368,19.2963107 L91.0187679,19.2963107 L91.0187679,13.282991 L89.5329957,13.282991 L89.5329957,11.4975672 L93.4097375,11.4975672 L93.4097375,19.3009928 L94.7815798,19.3009928 L94.7815798,21.0864166 L89.6313189,21.0864166 L89.6266368,19.2963107 Z M91.0000397,7.7472409 L93.4097375,7.7472409 L93.4097375,9.86977265 L91.0000397,9.86977265 L91.0000397,7.7472409 Z M97.1257288,13.282991 L95.6415172,13.282991 L95.6415172,11.4975672 L99.5120163,11.4975672 L99.5120163,17.2486919 C99.5120163,18.3942347 99.8132286,19.1839414 101.016517,19.1839414 C102.669282,19.1839414 103.669681,17.4921587 103.669681,15.7629196 L103.669681,13.282991 L102.202637,13.282991 L102.202637,11.4975672 L106.051287,11.4975672 L106.051287,18.9014574 C106.039349,19.0143853 106.07907,19.1266616 106.159367,19.2069586 C106.239664,19.2872556 106.351941,19.3269768 106.464869,19.315039 L107.385673,19.315039 L107.385673,21.0817345 L105.019674,21.0817345 C104.173783,21.0817345 103.778929,20.6868812 103.778929,20.0111045 L103.778929,19.6537076 C103.778929,19.4102407 103.797658,19.2026696 103.797658,19.2026696 L103.760201,19.2026696 C103.647832,19.5148066 102.667722,21.3080338 100.264267,21.3080338 C98.3477452,21.3080338 97.1257288,20.2732996 97.1257288,17.6622734 L97.1257288,13.282991 Z M108.81526,19.2963107 L110.205831,19.2963107 L110.205831,13.6778443 C110.216866,13.5675688 110.17679,13.4583125 110.097067,13.3813277 C110.017344,13.304343 109.906754,13.2681092 109.796931,13.282991 L108.726301,13.282991 L108.726301,11.4975672 L111.223397,11.4975672 C112.069289,11.4975672 112.48287,11.8924206 112.48287,12.5681972 L112.48287,13.000507 C112.482595,13.1379695 112.471637,13.2752027 112.450096,13.4109672 L112.487552,13.4109672 C112.976047,12.4339783 114.179335,11.2681465 115.757188,11.2681465 C117.091573,11.2681465 118.049834,11.8924206 118.425959,13.3547825 L118.463416,13.3547825 C119.089323,12.0905924 120.372411,11.2852686 121.782993,11.2712679 C123.718242,11.2712679 124.865346,12.3996432 124.865346,14.918589 L124.865346,19.2963107 L126.255916,19.2963107 L126.255916,21.0817345 L122.477498,21.0817345 L122.477498,15.3680663 C122.477498,14.2755867 122.271487,13.451545 121.16184,13.451545 C119.527803,13.451545 118.719368,15.087143 118.719368,16.8538385 L118.719368,19.2963107 L120.109938,19.2963107 L120.109938,21.0817345 L116.351809,21.0817345 L116.351809,15.3680663 C116.351809,14.3348928 116.181694,13.451545 115.054879,13.451545 C113.363097,13.451545 112.592118,15.2369688 112.592118,16.9662079 L112.592118,19.2963107 L113.96396,19.2963107 L113.96396,21.0817345 L108.8137,21.0817345 L108.81526,19.2963107 Z M38.6562217,25.584311 L39.2539641,25.584311 L39.2539641,28.4512896 L40.6585807,28.4512896 L40.6585807,28.9538302 L38.6609038,28.9538302 L38.6562217,25.584311 Z M44.9442221,25.584311 L46.9731127,25.584311 L46.9731127,26.0884123 L45.5419645,26.0884123 L45.5419645,26.9514712 L46.7546168,26.9514712 L46.7546168,27.4571332 L45.5419645,27.4571332 L45.5419645,28.454411 L47.0246153,28.454411 L47.0246153,28.9569516 L44.9442221,28.9569516 L44.9442221,25.584311 Z M52.0781137,25.584311 L52.7788613,25.584311 L53.8713409,28.9538302 L53.2392634,28.9538302 L52.725798,27.1621637 C52.6181108,26.8047668 52.5197876,26.4208383 52.4214644,26.0509559 L52.3996148,26.0509559 C52.3075344,26.4239596 52.2076506,26.8047668 52.101524,27.1621637 L51.5833765,28.9553909 L50.9747093,28.9553909 L52.0781137,25.584311 Z M51.6286364,27.5726239 L53.2158531,27.5726239 L53.2158531,28.0408294 L51.6286364,28.0408294 L51.6286364,27.5726239 Z M57.9650179,25.584311 L59.1011967,25.584311 C59.8019443,25.584311 60.3419414,25.83246 60.3419414,26.5847102 C60.3419414,27.3088681 59.8019443,27.6381727 59.1011967,27.6381727 L58.5627603,27.6381727 L58.5627603,28.9538302 L57.9650179,28.9538302 L57.9650179,25.584311 Z M59.0387693,27.1590423 C59.5069748,27.1590423 59.7520024,26.9670781 59.7520024,26.5847102 C59.7520024,26.2023424 59.5007321,26.0634414 59.0387693,26.0634414 L58.5705638,26.0634414 L58.5705638,27.155921 L59.0387693,27.1590423 Z M58.9888274,27.4711794 L59.4211372,27.1153431 L60.4792817,28.9553909 L59.8081871,28.9553909 L58.9888274,27.4711794 Z M64.7181024,25.584311 L65.3314517,25.584311 L66.3786714,27.4789828 L66.7267042,28.1984586 L66.7485538,28.1984586 C66.7189007,27.8504258 66.6720802,27.4181161 66.6720802,27.0482337 L66.6720802,25.584311 L67.2401696,25.584311 L67.2401696,28.9553909 L66.6268203,28.9553909 L65.5796006,27.0591585 L65.2315678,26.342804 L65.2112789,26.342804 C65.2393713,26.6986402 65.2861918,27.105979 65.2861918,27.4805435 L65.2861918,28.9553909 L64.7181024,28.9553909 L64.7181024,25.584311 Z M71.8004915,25.584311 L72.3982339,25.584311 L72.3982339,28.9553909 L71.8004915,28.9553909 L71.8004915,25.584311 Z M76.9554344,25.584311 L77.5703443,25.584311 L78.6160034,27.4789828 L78.9640361,28.1984586 L78.9858857,28.1984586 C78.9562327,27.8504258 78.9094122,27.4181161 78.9094122,27.0482337 L78.9094122,25.584311 L79.4775015,25.584311 L79.4775015,28.9553909 L78.8641523,28.9553909 L77.8169326,27.0591585 L77.4688998,26.342804 L77.4486109,26.342804 C77.4767032,26.6986402 77.5250845,27.105979 77.5250845,27.4805435 L77.5250845,28.9553909 L76.9554344,28.9553909 L76.9554344,25.584311 Z M83.861466,27.2823365 C83.861466,26.1804928 84.5606529,25.525005 85.4564862,25.525005 C85.8400939,25.5197176 86.2086561,25.6740389 86.4740529,25.9510721 L86.1619159,26.3365613 C85.9866065,26.1473827 85.7393535,26.0413362 85.4814572,26.0447132 C84.8837148,26.0447132 84.481058,26.5129187 84.481058,27.2636082 C84.481058,28.0142978 84.8384549,28.4981102 85.5142316,28.4981102 C85.6862498,28.5053365 85.8554901,28.4529657 85.9933619,28.3498451 L85.9933619,27.6225658 L85.3597237,27.6225658 L85.3597237,27.1325107 L86.5302376,27.1325107 L86.5302376,28.6182829 C86.2356865,28.8864982 85.8484359,29.0297585 85.4502435,29.0178183 C84.5388034,29.0178183 83.861466,28.3935443 83.861466,27.2823365 L83.861466,27.2823365 Z M95.5307086,27.2823365 C95.5307086,26.1804928 96.2298955,25.525005 97.1257288,25.525005 C97.5094098,25.5193389 97.8781171,25.6737209 98.1432955,25.9510721 L97.8311585,26.3365613 C97.6560814,26.1470535 97.4086744,26.0409409 97.1506998,26.0447132 C96.5529574,26.0447132 96.1518613,26.5129187 96.1518613,27.2636082 C96.1518613,28.0142978 96.5076975,28.4981102 97.1834741,28.4981102 C97.355938,28.5050593 97.5255802,28.4527346 97.6641652,28.3498451 L97.6641652,27.6225658 L97.0289663,27.6225658 L97.0289663,27.1325107 L98.1994801,27.1325107 L98.1994801,28.6182829 C97.9063655,28.885784 97.5208385,29.0290277 97.1241681,29.0178183 C96.2096066,29.0178183 95.5307086,28.3935443 95.5307086,27.2823365 L95.5307086,27.2823365 Z M102.645872,25.584311 L103.782051,25.584311 C104.482798,25.584311 105.022795,25.83246 105.022795,26.5847102 C105.022795,27.3088681 104.482798,27.6381727 103.782051,27.6381727 L103.242054,27.6381727 L103.242054,28.9538302 L102.644311,28.9538302 L102.645872,25.584311 Z M103.719623,27.1590423 C104.187829,27.1590423 104.432856,26.9670781 104.432856,26.5847102 C104.432856,26.2023424 104.181586,26.0634414 103.719623,26.0634414 L103.251418,26.0634414 L103.251418,27.155921 L103.719623,27.1590423 Z M103.669681,27.4711794 L104.101991,27.1153431 L105.153893,28.9475875 L104.490602,28.9475875 L103.669681,27.4711794 Z M109.221038,27.2573655 C109.221038,26.1648859 109.829706,25.525005 110.706811,25.525005 C111.583916,25.525005 112.192583,26.1711287 112.192583,27.2573655 C112.192583,28.3436023 111.585476,29.0178183 110.706811,29.0178183 C109.828145,29.0178183 109.221038,28.3482844 109.221038,27.2573655 Z M111.579234,27.2573655 C111.579234,26.5019939 111.237444,26.0447132 110.706811,26.0447132 C110.176178,26.0447132 109.835948,26.5019939 109.835948,27.2573655 C109.835948,28.0127371 110.177738,28.4981102 110.706811,28.4981102 C111.235883,28.4981102 111.579234,28.0142978 111.579234,27.2573655 Z M116.557819,27.4789828 L116.557819,25.584311 L117.155562,25.584311 L117.155562,27.522682 C117.155562,28.256204 117.428681,28.4965495 117.837581,28.4965495 C118.24648,28.4965495 118.533646,28.256204 118.533646,27.522682 L118.533646,25.584311 L119.107979,25.584311 L119.107979,27.4774221 C119.107979,28.5839478 118.617923,29.0162576 117.837581,29.0162576 C117.057238,29.0162576 116.557819,28.5855085 116.557819,27.4789828 L116.557819,27.4789828 Z M123.651133,25.584311 L124.712399,25.584311 C125.461528,25.584311 126.015571,25.8449455 126.015571,26.6237273 C126.015571,27.3744169 125.458406,27.7162069 124.734248,27.7162069 L124.248875,27.7162069 L124.248875,28.9538302 L123.651133,28.9538302 L123.651133,25.584311 Z M124.684307,27.2370766 C125.186847,27.2370766 125.425632,27.0373089 125.425632,26.6237273 C125.425632,26.2101458 125.163437,26.0634414 124.664018,26.0634414 L124.248875,26.0634414 L124.248875,27.2370766 L124.684307,27.2370766 Z" id="Shape"></path>
                            <path d="M13.774219,8.55567579 C13.6958882,8.17103737 13.3209133,7.92245065 12.9361311,8.00007189 L12.0481013,8.17955067 C11.9008863,7.79810534 11.6972933,7.440897 11.4441161,7.11984548 L12.079315,6.41753718 C12.252884,6.22928216 12.3119398,5.9622964 12.2339602,5.7184002 C12.1559805,5.474504 11.9529885,5.2913014 11.702399,5.23866032 C11.4518095,5.18601925 11.1922586,5.27205593 11.0227311,5.46395858 L10.3812896,6.17094893 C9.94095696,5.89795114 9.45257036,5.71149552 8.94233788,5.62158778 L8.94233788,4.82719905 C8.94233788,4.43415323 8.62371129,4.11552664 8.23066547,4.11552664 C7.83761965,4.11552664 7.51899306,4.43415323 7.51899306,4.82719905 L7.51899306,5.62470915 C7.00122011,5.71553879 6.50610323,5.90637613 6.06131316,6.18655579 L5.52911954,5.5981775 C5.25883591,5.35351629 4.84737162,5.35267371 4.57608824,5.5962259 C4.30480486,5.83977809 4.26144444,6.24895219 4.47565709,6.54395268 L5.00629002,7.13233096 C4.78541323,7.41367194 4.60327012,7.72336773 4.46473229,8.05313518 L3.61884096,7.88145982 C3.36960311,7.83099891 3.11237726,7.91733791 2.9440579,8.10795377 C2.77573854,8.29856963 2.72189739,8.56450326 2.80281589,8.80558002 C2.8837344,9.04665679 3.0871191,9.2262514 3.33635695,9.27671231 L4.14791321,9.44058425 L4.14791321,9.77301017 C4.1479132,10.0272662 4.2835572,10.2622085 4.50374941,10.3893366 C4.72394163,10.5164646 4.99522962,10.5164646 5.21542184,10.3893366 C5.43561405,10.2622085 5.57125804,10.0272662 5.57125803,9.77301017 L5.57125803,9.64035194 C5.5705188,8.91075471 5.87026069,8.21305042 6.39998183,7.71134514 C6.41871005,7.69729897 6.43743827,7.68325281 6.45460581,7.66764596 L6.50454773,7.61770403 C7.29492835,6.93836737 8.40900432,6.78264255 9.35536648,7.21921842 C10.3017286,7.65579429 10.9063582,8.6043925 10.9025584,9.64659468 L10.9025584,9.77925292 C10.9025584,10.1722987 11.221185,10.4909253 11.6142308,10.4909253 C12.0072766,10.4909253 12.3259032,10.1722987 12.3259032,9.77925292 L12.3259032,9.57636385 L13.2248578,9.39532438 C13.6076968,9.31410206 13.8531163,8.93900063 13.774219,8.55567579 L13.774219,8.55567579 Z M23.9670535,30.9624724 C23.7138955,30.9627535 23.480156,30.826803 23.3552649,30.6065957 L21.4028478,27.1730885 L20.5257428,28.6541787 C19.8091311,29.8635383 18.5088887,30.6064493 17.1031603,30.6097171 C16.0969388,30.633592 15.1567639,30.1104295 14.6466346,29.2427775 C14.1365053,28.3751256 14.1365053,27.2991944 14.6466346,26.4315425 C15.1567639,25.5638906 16.0969388,25.040728 17.1031603,25.0646029 L18.9759825,25.0646029 C19.3638566,25.0646029 19.6782908,25.379037 19.6782908,25.7669112 C19.6782908,26.1547854 19.3638566,26.4692195 18.9759825,26.4692195 L17.1031603,26.4692195 C16.6141635,26.4692195 16.1623117,26.7300962 15.9178132,27.1535799 C15.6733148,27.5770636 15.6733148,28.0988171 15.9178132,28.5223008 C16.1623117,28.9457845 16.6141635,29.2066612 17.1031603,29.2066612 C18.0120235,29.204523 18.8527093,28.7243005 19.3162118,27.9425063 L20.8066661,25.411075 C20.9332818,25.1968689 21.1633839,25.0652126 21.4122119,25.0646029 C21.6669152,25.0661941 21.9008871,25.2052642 22.0240005,25.4282425 L24.5835241,29.9136516 C24.67568,30.0754348 24.6996624,30.2672422 24.6501773,30.4467352 C24.6006923,30.6262283 24.4818087,30.7786485 24.3197683,30.8703515 C24.212522,30.9319745 24.090736,30.9637682 23.9670535,30.9624724 L23.9670535,30.9624724 Z M10.4858555,29.0053328 L5.2076184,29.0053328 C4.85508389,29.0053328 4.56929819,28.7195471 4.56929819,28.3670126 L4.56929819,23.0872149 C4.56929819,22.7346804 4.85508389,22.4488947 5.2076184,22.4488947 L10.4858555,22.4488947 C10.83839,22.4488947 11.1241757,22.7346804 11.1241757,23.0872149 L11.1241757,28.3670126 C11.1241757,28.7195471 10.83839,29.0053328 10.4858555,29.0053328 L10.4858555,29.0053328 Z M5.84593861,27.7271317 L9.84753524,27.7271317 L9.84753524,23.7255351 L5.84593861,23.7255351 L5.84593861,27.7271317 Z" id="Shape"></path>
                            <path d="M13.124974,31.2917365 L7.84673693,31.2917365 C7.49420241,31.2917365 7.20841672,31.0059508 7.20841672,30.6534163 L7.20841672,25.3736186 C7.20841672,25.2043255 7.27566812,25.0419663 7.39537638,24.922258 C7.51508464,24.8025497 7.67744388,24.7352983 7.84673693,24.7352983 L13.124974,24.7352983 C13.4777619,24.7352983 13.7639944,25.0208317 13.7648549,25.3736186 L13.7648549,30.6534163 C13.7639944,31.0062031 13.4777619,31.2917365 13.124974,31.2917365 L13.124974,31.2917365 Z M8.48505714,30.0150961 L12.4866538,30.0150961 L12.4866538,26.0119388 L8.48505714,26.0119388 L8.48505714,30.0150961 Z M25.9584877,10.0071129 C25.7676532,10.0173814 25.5818405,9.94385427 25.4497043,9.80578456 L22.2705887,6.37227731 L20.1106005,9.19711737 C19.9686967,9.3827912 19.7385163,9.47865609 19.5067661,9.44860064 C19.2750159,9.4185452 19.0769042,9.26713556 18.9870579,9.05140628 C18.8972116,8.835677 18.9292804,8.58840248 19.0711843,8.40272865 L21.6962566,4.9692214 C21.8122468,4.81702982 21.9892071,4.72343718 22.1802873,4.7132222 C22.3713676,4.70300722 22.5572976,4.77720006 22.6888523,4.9161581 L26.3970402,8.9005872 C26.5733422,9.08572444 26.6259199,9.35646962 26.5317248,9.59413638 C26.4375296,9.83180314 26.2137514,9.99301941 25.9584877,10.0071129 L25.9584877,10.0071129 Z" id="Shape"></path>
                            <path d="M28.2027529,8.2607063 C28.0109661,8.27211696 27.8240115,8.19779251 27.6924088,8.05781724 L25.0517296,5.26575157 L23.95925,6.9185171 C23.756291,7.2078781 23.3601378,7.28360383 23.0647633,7.08950059 C22.7693888,6.89539735 22.6817011,6.50171901 22.8667705,6.20060195 L24.4087273,3.85957428 C24.5187979,3.69277548 24.6989473,3.58530067 24.8980118,3.56767359 C25.0970762,3.55004651 25.2933081,3.6241929 25.4309761,3.76905455 L28.6413054,7.16822672 C28.8100508,7.35366872 28.8579092,7.61926735 28.7645052,7.8519462 C28.6711013,8.08462505 28.4528822,8.24341258 28.2027529,8.2607063 L28.2027529,8.2607063 Z" id="Path"></path>
                            <circle id="Oval" cx="22.5811651" cy="9.8120273" r="1.34062851"></circle>
                            <circle id="Oval" cx="7.5767384" cy="19.914342" r="1.53415347"></circle>
                            <path d="M26.5078488,29.2300715 C25.2235544,29.2300715 24.182428,28.1889451 24.182428,26.9046507 C24.182428,25.6203562 25.2235544,24.5792298 26.5078488,24.5792298 C27.7921433,24.5792298 28.8332696,25.6203562 28.8332696,26.9046507 C28.8315502,28.1882322 27.7914304,29.228352 26.5078488,29.2300715 Z M26.5078488,25.9323426 C26.1138143,25.9323426 25.7586085,26.1697888 25.6079642,26.5338897 C25.4573199,26.8979907 25.5409263,27.3169907 25.8197742,27.5953917 C26.0986221,27.8737926 26.5177556,27.9567269 26.8816145,27.8054989 C27.2454734,27.6542708 27.4823478,27.2986847 27.4817176,26.9046507 C27.4817176,26.6465082 27.3790633,26.3989614 27.1963827,26.2165735 C27.0137021,26.0341857 26.7659909,25.9319295 26.5078488,25.9323426 L26.5078488,25.9323426 Z M8.23222615,11.8502821 C7.17391645,11.8502821 6.31559113,10.9930994 6.31415998,9.93479062 C6.31273242,8.87648188 7.1687392,8.01699256 8.22704502,8.0141179 C9.28535084,8.01125763 10.1460026,8.86609568 10.1503183,9.92439663 C10.1519666,10.434328 9.95066583,10.9239649 9.59082075,11.285274 C9.23097566,11.6465831 8.74216002,11.8498702 8.23222615,11.8502821 L8.23222615,11.8502821 Z M8.23222615,9.12844722 C7.90713848,9.12844722 7.61406103,9.32427531 7.48965536,9.62461716 C7.36524969,9.92495901 7.43401537,10.2706674 7.66388707,10.5005391 C7.89375877,10.7304108 8.2394672,10.7991765 8.53980904,10.6747708 C8.84015089,10.5503652 9.03597898,10.2572877 9.03597898,9.93220006 C9.03806178,9.71768272 8.95430128,9.51123461 8.80334205,9.35880975 C8.65238281,9.20638489 8.4467536,9.1206438 8.23222615,9.1206438 L8.23222615,9.12844722 Z" id="Shape"></path>
                            <circle id="Oval" cx="21.1718664" cy="31.2917365" r="1.40929866"></circle>
                            <path d="M17.8398037,32.9195311 L14.1066449,32.9195311 C13.8065722,32.9037432 13.5713607,32.6558312 13.5713607,32.3553434 C13.5713607,32.0548557 13.8065722,31.8069436 14.1066449,31.7911557 L17.8398037,31.7911557 C18.1398764,31.8069436 18.3750879,32.0548557 18.3750879,32.3553434 C18.3750879,32.6558312 18.1398764,32.9037432 17.8398037,32.9195311 L17.8398037,32.9195311 Z M1.72260855,23.0638046 L3.49866821,23.0638046 L3.49866821,24.8398643 L1.72260855,24.8398643 L1.72260855,23.0638046 Z M23.6002925,25.1441978 C23.4399492,25.145939 23.2865443,25.0788954 23.1789075,24.960037 C22.7559618,24.484028 22.2237682,23.9128173 22.0692604,23.7864018 C21.8226482,23.6381319 21.7268766,23.3281971 21.8468527,23.0666493 C21.9668287,22.8051015 22.2642157,22.6755147 22.5374659,22.7657137 C22.6685634,22.814095 22.8308747,22.873401 24.0185561,24.2124688 C24.163885,24.3790201 24.1987358,24.6150273 24.1077486,24.8164749 C24.0167614,25.0179225 23.8166504,25.1478053 23.5956104,25.1488799 L23.6002925,25.1441978 Z" id="Shape"></path>
                            <circle id="Oval" cx="11.0664303" cy="2.94501281" r="1.29536864"></circle>
                            <path d="M15.8967507,8.2607063 C15.1707897,8.24636496 14.4550033,8.08718339 13.7913865,7.79250077 C13.5416299,7.68561875 13.4124657,7.40778103 13.491735,7.14793782 C13.5198273,7.05585739 14.2065288,4.89118714 15.9888312,4.1202087 C16.9580166,3.7003844 18.0395714,3.7737366 19.2022818,4.3402653 C19.4135193,4.44348383 19.5316516,4.67339738 19.4925692,4.90523331 C19.4769624,4.99107099 19.1148834,6.99655136 17.5073778,7.87053502 C17.0126404,8.13602583 16.4581395,8.2703526 15.8967507,8.2607063 L15.8967507,8.2607063 Z M14.6887805,6.99030862 C15.6064633,7.29152085 16.3805631,7.27435331 16.9954731,6.93880601 C17.7929832,6.50181418 18.1769117,5.62626983 18.3407836,5.11436511 C17.6244292,4.84748796 16.9751842,4.83656316 16.4055341,5.0847121 C15.498776,5.47800474 14.9494149,6.42065855 14.6887805,6.99030862 L14.6887805,6.99030862 Z" id="Shape"></path>
                            <path d="M19.3380614,5.21113146 C19.1867862,5.21063636 19.0419187,5.14999417 18.9354047,5.0425736 C18.8901448,4.99575305 17.80859,3.87518113 18.0723458,2.56732701 C18.2455818,1.70426814 18.9354047,1.01444532 20.1215253,0.515026087 C20.359882,0.415744621 20.6352149,0.490193604 20.7910593,0.69606556 C20.8331977,0.752250224 21.8226721,2.09131805 21.4278188,3.42570382 C21.193716,4.2138498 20.5569565,4.80378878 19.5315864,5.17679252 C19.4696576,5.19974506 19.4041063,5.21137512 19.3380614,5.21113146 L19.3380614,5.21113146 Z M20.118404,1.76357418 C19.5706035,2.06322572 19.2537844,2.40501576 19.1819929,2.78582293 C19.0961552,3.20564722 19.3099691,3.6582459 19.5144188,3.96101882 C19.9670175,3.73628016 20.2463801,3.45067478 20.3478247,3.10888474 C20.4804829,2.66096812 20.3072469,2.13501723 20.1215253,1.76357418 L20.118404,1.76357418 Z M15.1086048,3.43350725 C14.1604679,3.43350725 13.3918511,2.66489047 13.3918511,1.71675362 C13.3918511,0.768616778 14.1604679,0 15.1086048,0 C16.0567416,0 16.8253584,0.768616778 16.8253584,1.71675362 C16.8253584,2.66489047 16.0567416,3.43350725 15.1086048,3.43350725 Z M15.1086048,0.991033404 C14.8162657,0.990413228 14.5524833,1.16636982 14.4407634,1.43652008 C14.3290434,1.70667034 14.3914992,2.01754189 14.5988883,2.22358139 C14.8062774,2.42962088 15.1175501,2.49004575 15.3869652,2.37656443 C15.6563803,2.26308311 15.830611,1.9981576 15.8280806,1.70582883 C15.82466,1.31065905 15.5037884,0.99187562 15.1086048,0.991033404 Z M22.3314555,2.00860174 L23.6158993,2.00860174 L23.6158993,3.29304559 L22.3314555,3.29304559 L22.3314555,2.00860174 Z M30.2378862,12.2014362 L24.6678011,12.2014362 C24.418338,12.2134212 24.1825205,12.0871554 24.0542001,11.8728908 C23.9258798,11.6586261 23.9258798,11.3911323 24.0542001,11.1768676 C24.1825205,10.962603 24.418338,10.8363372 24.6678011,10.8483222 L28.7786457,10.8483222 L28.3104401,10.2895969 C28.0895346,10.0027854 28.1332143,9.59296528 28.4096088,9.35915726 C28.6860033,9.12534923 29.0973937,9.15021577 29.3436137,9.41561328 L30.7607158,11.0886677 C30.9310748,11.2896215 30.9691218,11.5712586 30.8581909,11.8102124 C30.74726,12.0491663 30.5075762,12.2018708 30.244129,12.2014362 L30.2378862,12.2014362 Z M28.8207842,24.8039694 C28.5573379,24.8036068 28.3180013,24.6505243 28.2071987,24.4115121 C28.0963961,24.1724999 28.1342317,23.8909244 28.3041974,23.6896393 L28.7724029,23.1309141 L24.6678011,23.1309141 C24.418338,23.142899 24.1825205,23.0166333 24.0542001,22.8023686 C23.9258798,22.588104 23.9258798,22.3206101 24.0542001,22.1063455 C24.1825205,21.8920808 24.418338,21.7658151 24.6678011,21.7778001 L30.2378862,21.7778001 C30.5019443,21.7768447 30.74237,21.9297797 30.8534305,22.1693484 C30.964491,22.408917 30.9258392,22.6912283 30.754473,22.8921292 L29.3373709,24.5651837 C29.2087198,24.7169402 29.019734,24.8042962 28.8207842,24.8039694 L28.8207842,24.8039694 Z M8.89707801,12.5354228 C8.5585077,12.48991 8.24623546,12.7249836 8.19633039,13.0629344 C8.11088807,13.7710464 7.89946701,14.4581648 7.57205635,15.091825 C7.51841145,15.18099 7.45677078,15.265093 7.38789551,15.3430953 C7.17309052,15.6078384 6.83888375,15.7458676 6.49986568,15.7098563 C6.43587759,14.640787 6.04882768,13.5561109 5.34808006,12.4823595 C4.5474486,11.2541003 3.20369872,10.0039916 2.15803969,10.1569387 C1.62251063,10.2217865 1.21033207,10.6609177 1.17949013,11.1994764 C1.00001134,12.8459992 3.33323558,15.7769658 5.14987305,16.6618743 C5.07183407,17.1388177 4.89881991,17.5952355 4.64108971,18.0040635 C4.41359855,18.2554449 4.12799479,18.4472763 3.80924454,18.5627887 C3.85639445,18.315522 3.87368573,18.0634885 3.86074715,17.8120992 C3.83828519,17.1856065 3.53220494,16.6033075 3.02890199,16.2295645 C2.18144997,15.6052904 1.13735163,15.62714 0.488106623,16.2966739 C-0.0862254982,16.8881736 -0.275068397,17.9790925 0.598915266,19.0809362 C0.917726786,19.4922367 1.3526871,19.7983401 1.84746336,19.9596019 C1.64878041,20.3267661 1.42343735,20.6788646 1.17324739,21.0130644 C1.00453838,21.2033829 0.960816672,21.4739725 1.06100228,21.7077389 C1.16118789,21.9415054 1.38728497,22.0964583 1.64145292,22.1055886 L1.65862046,22.1055886 C1.82556876,22.1074952 1.98694053,22.045515 2.10965846,21.9323079 C2.57380222,21.3581199 2.97364205,20.7348094 3.30202188,20.0735319 C4.10411004,19.9560783 4.85493816,19.6085832 5.46357076,19.0731328 C5.57792305,18.9659134 5.67904489,18.8454055 5.76478299,18.7141752 C6.08676641,18.1964891 6.31105493,17.6241302 6.42651348,17.0255139 C7.16873987,17.0562916 7.88217965,16.7359953 8.35239891,16.1608943 C8.46465236,16.0104564 8.5688445,15.8541681 8.66453593,15.6926888 C8.94077719,15.2338474 9.24042873,14.4753544 9.41678615,13.228367 C9.45803212,12.895224 9.22844421,12.5891067 8.89707801,12.5354228 L8.89707801,12.5354228 Z M5.08276359,15.0980678 C3.67034357,14.0617729 2.57786399,12.1624191 2.48578357,11.4944459 C2.80572402,11.6193007 3.54236739,12.1187199 4.25716117,13.2111995 C4.63611858,13.7894656 4.9152056,14.4273035 5.08276359,15.0980678 Z M2.42179548,18.7609957 C2.1122301,18.6981405 1.8354062,18.5265097 1.64145292,18.2771834 C1.23723548,17.7668393 1.28249535,17.3907142 1.44324591,17.2252816 L1.45573139,17.2127961 C1.59619305,17.0801379 1.89116254,17.0223925 2.25948423,17.2970731 C2.43413372,17.4231512 2.54343051,17.6205721 2.55757508,17.8355095 C2.57772677,18.1501136 2.53146502,18.4654379 2.42179548,18.7609957 L2.42179548,18.7609957 Z" id="Shape"></path>
                            <path d="M126.950421,11.50381 L126.255916,11.50381 L126.255916,11.2712679 L127.900879,11.2712679 L127.900879,11.50381 L127.204813,11.50381 L127.204813,13.2205636 L126.950421,13.2205636 L126.950421,11.50381 Z M128.22238,11.2712679 L128.448679,11.2712679 L128.966826,12.3902791 C129.001162,12.4761168 129.029254,12.57444 129.029254,12.57444 C129.044912,12.5114257 129.065794,12.4498257 129.091681,12.3902791 L129.617632,11.2712679 L129.843931,11.2712679 L130,13.2252456 L129.751851,13.2252456 L129.644164,11.900224 C129.639997,11.8571456 129.639997,11.8137655 129.644164,11.7706871 L129.6348,11.7706871 L129.13538,12.8631667 L128.926249,12.8631667 L128.426829,11.7706871 L128.417465,11.7706871 C128.421633,11.8137655 128.421633,11.8571456 128.417465,11.900224 L128.311339,13.2252456 L128.061629,13.2252456 L128.22238,11.2712679 Z" id="Shape"></path>
                        </g>
                    </g>
                </g>
            </g>
        </g>
    </g>
</svg>