<?xml version="1.0" encoding="UTF-8"?>
<svg width="100px" height="100px" viewBox="0 0 100 100" version="1.1" xmlns="http://www.w3.org/2000/svg" xmlns:xlink="http://www.w3.org/1999/xlink">
    <title>Icons/Contact</title>
    <g id="Icons/Contact" stroke="none" stroke-width="1" fill="none" fill-rule="evenodd">
        <g id="email" transform="translate(5, 16)" fill="#35302C" fill-rule="nonzero">
            <path d="M71.2499414,26.3450391 L71.2499414,7.50005859 C71.2499414,3.36375 67.8863672,0 63.7498828,0 L7.49988281,0 C3.36357422,0 0,3.36357422 0,7.50005859 L0,45 C0,49.1363086 3.36357422,52.5000586 7.50005859,52.5000586 L49.5495703,52.5000586 C52.0062891,61.14375 59.9542383,67.5 69.3750586,67.5 C73.0005469,67.5 76.5655664,66.5460352 79.689375,64.7388281 C80.5848047,64.220625 80.8924219,63.0743555 80.3722852,62.177168 C79.854082,61.2799805 78.7060547,60.9704297 77.810625,61.4942578 C75.2581055,62.9701172 72.3411914,63.7500586 69.3748828,63.7500586 C60.069375,63.7500586 52.4998828,56.1803906 52.4998828,46.8750586 C52.4998828,37.5697266 60.0695508,30.0000586 69.3748828,30.0000586 C78.6802148,30.0000586 86.2498828,37.5697266 86.2498828,46.8750586 L86.2498828,48.7501172 C86.2498828,50.8173047 84.5671289,52.5000586 82.4999414,52.5000586 C80.4327539,52.5000586 78.75,50.8173047 78.75,48.7501172 L78.75,41.2500586 C78.75,40.2136523 77.9113477,39.375 76.8749414,39.375 C76.370625,39.375 75.9174609,39.579082 75.5808398,39.9023438 C73.9235742,38.4256055 71.7639258,37.4999414 69.3748828,37.4999414 C64.2058594,37.4999414 59.9999414,41.7058594 59.9999414,46.8748828 C59.9999414,52.0439062 64.2058594,56.25 69.3750586,56.25 C72.1692773,56.25 74.6537695,54.9965039 76.3729102,53.0504297 C77.7311719,54.9799805 79.9658789,56.25 82.5001172,56.25 C86.6364258,56.25 90,52.8864258 90,48.7499414 L90,46.8748828 C90,36.1351758 81.7460156,27.2967187 71.2499414,26.3450391 Z M7.50005859,3.74994141 L63.7500586,3.74994141 C63.8281055,3.74994141 63.8934961,3.78984375 63.9704883,3.79458984 L37.1668359,25.7958984 C36.2128711,26.396543 34.8303516,26.2719141 34.209668,25.8911719 L7.28191406,3.79423828 C7.35802734,3.78966797 7.42271484,3.74994141 7.50005859,3.74994141 Z M67.5001758,26.3450391 C57.0039258,27.2967187 48.7499414,36.1351758 48.7499414,46.8750586 C48.7499414,47.5078711 48.7887891,48.131543 48.8448633,48.7501172 L7.50005859,48.7501172 C5.43287109,48.7501172 3.75011719,47.0673633 3.75011719,45.0001758 L3.75011719,7.50005859 C3.75011719,6.96902344 3.86736328,6.46751953 4.06740234,6.00908203 L31.9960547,28.9125 C33.0873047,29.6247656 34.3416797,30.0002344 35.6252344,30.0002344 C36.8593945,30.0002344 38.065957,29.6523633 39.1280273,28.9931836 C39.2341992,28.9364063 39.3349219,28.8687305 39.4301953,28.7899805 L67.1825391,6.00908203 C67.3827539,6.46751953 67.5001758,6.96902344 67.5001758,7.50023437 L67.5001758,26.3450391 L67.5001758,26.3450391 Z M69.3750586,52.5000586 C66.2732227,52.5000586 63.7500586,49.9768945 63.7500586,46.8750586 C63.7500586,43.7732227 66.2732227,41.2500586 69.3750586,41.2500586 C72.4768945,41.2500586 75.0000586,43.7732227 75.0000586,46.8750586 C75.0000586,49.9768945 72.4768945,52.5000586 69.3750586,52.5000586 Z" id="Shape"></path>
        </g>
    </g>
</svg>