<?xml version="1.0" encoding="UTF-8"?>
<svg width="100px" height="100px" viewBox="0 0 100 100" version="1.1" xmlns="http://www.w3.org/2000/svg" xmlns:xlink="http://www.w3.org/1999/xlink">
    <title>Icons/Learning</title>
    <g id="Icons/Learning" stroke="none" stroke-width="1" fill="none" fill-rule="evenodd">
        <g id="graduate" transform="translate(5, 17)" fill="#35302C" fill-rule="nonzero">
            <path d="M86.5474895,16.7666188 L48.6762685,0.741758986 C46.3251978,-0.247252995 43.6748022,-0.247252995 41.3237315,0.741758986 L3.45251055,16.7666188 C1.35980317,17.6517932 0,19.7034146 0,21.9756409 C0,24.2478672 1.35980317,26.2994887 3.45251055,27.184663 L16.7247823,32.7971345 L16.7247823,50.8448973 C16.7040299,54.1419092 18.4238649,57.2053845 21.2494204,58.9044591 C35.9236467,67.4839803 54.0838944,67.4839803 68.7581206,58.9044591 C71.5836762,57.2053845 73.3035112,54.1419092 73.2827587,50.8448973 L73.2827587,32.7971345 L78.9385564,30.4028319 L78.9385564,39.3428185 C77.3969938,40.0101871 76.330003,41.4509779 76.1412086,43.1201639 C75.9524143,44.7893499 76.6706436,46.4320617 78.0242024,47.4268889 C76.8246176,48.3092613 76.1146161,49.7082877 76.1106575,51.1974442 L76.1106575,55.9106383 C76.1106575,56.9518484 76.9547198,57.7959159 77.9959234,57.7959159 L83.6517211,57.7959159 C84.6929247,57.7959159 85.5369869,56.9518484 85.5369869,55.9106383 L85.5369869,51.1974442 C85.5330284,49.7082877 84.8230269,48.3092613 83.6234421,47.4268889 C84.9770009,46.4320617 85.6952302,44.7893499 85.5064359,43.1201639 C85.3176415,41.4509779 84.2506507,40.0101871 82.7090881,39.3428185 L82.7090881,28.8078871 L86.5474895,27.184663 C88.6401968,26.2994887 90,24.2478672 90,21.9756409 C90,19.7034146 88.6401968,17.6517932 86.5474895,16.7666188 Z M81.7664552,43.6563337 C81.7664552,44.1769387 81.344424,44.5989725 80.8238222,44.5989725 C80.3032204,44.5989725 79.8811893,44.1769387 79.8811893,43.6563337 C79.8811893,43.1357286 80.3032204,42.7136949 80.8238222,42.7136949 C81.344424,42.7136949 81.7664552,43.1357286 81.7664552,43.6563337 Z M81.7664552,54.0253606 L79.8811893,54.0253606 L79.8811893,51.1974442 C79.8811893,50.6768392 80.3032204,50.2548054 80.8238222,50.2548054 C81.344424,50.2548054 81.7664552,50.6768392 81.7664552,51.1974442 L81.7664552,54.0253606 Z M69.512585,50.8448973 C69.5344536,52.8065575 68.5205118,54.6345305 66.8445757,55.6542405 C53.3509331,63.5370688 36.656608,63.5370688 23.1629653,55.6542405 C21.4870293,54.6345305 20.4730875,52.8065575 20.494956,50.8448973 L20.494956,34.3920794 L41.3312726,43.2076376 C43.6821276,44.1977176 46.3329545,44.1977176 48.6838095,43.2076376 L69.512585,34.3920794 L69.512585,50.8448973 Z M85.0788673,23.7119816 L47.2076463,39.7368415 C45.7980302,40.3288513 44.2095109,40.3288513 42.7998947,39.7368415 L4.92867373,23.7119816 C4.23110461,23.4169235 3.77783688,22.7330497 3.77783688,21.9756409 C3.77783688,21.2182322 4.23110461,20.5343583 4.92867373,20.2393002 L42.7998947,4.21444038 C44.209253,3.62115159 45.7982881,3.62115159 47.2076463,4.21444038 L85.0788673,20.2393002 C85.7764365,20.5343583 86.2297042,21.2182322 86.2297042,21.9756409 C86.2297042,22.7330497 85.7764365,23.4169235 85.0788673,23.7119816 Z" id="Shape"></path>
        </g>
    </g>
</svg>