<?xml version="1.0" encoding="utf-8"?>
<!-- Generator: Adobe Illustrator 26.1.0, SVG Export Plug-In . SVG Version: 6.00 Build 0)  -->
<svg version="1.1" id="Layer_1" xmlns="http://www.w3.org/2000/svg" xmlns:xlink="http://www.w3.org/1999/xlink" x="0px" y="0px"
	 viewBox="0 0 118.9 100.1" style="enable-background:new 0 0 118.9 100.1;" xml:space="preserve">
<style type="text/css">
	.st0{fill:#904799;}
</style>
<g id="a">
</g>
<g id="b">
	<g id="c">
		<g>
			<g>
				<path class="st0" d="M37.3,39.1l0.2,1.1c0.1,0.8-0.2,1.2-1.1,1.4l-5.3,0.9c-0.4,0.1-0.7,0-1-0.1s-0.4-0.4-0.5-0.8l-0.2-1.1
					c-0.1-0.4,0-0.7,0.2-0.9s0.5-0.4,0.9-0.4l0.6-0.1l-1.6-2.8l-6.4,1.1l-0.5,3.1l0.5-0.1c0.4-0.1,0.7,0,1,0.1
					c0.3,0.2,0.4,0.4,0.5,0.8l0.2,1.1c0.1,0.4,0,0.7-0.2,0.9s-0.5,0.4-0.9,0.4l-4.6,0.8c-0.4,0.1-0.7,0-1-0.1s-0.4-0.4-0.5-0.8
					l-0.2-1.1c-0.1-0.4,0-0.7,0.2-0.9s0.5-0.4,0.9-0.4l0.6-0.1l3-17.1c0-0.3,0.2-0.6,0.4-0.8c0.2-0.2,0.5-0.3,0.8-0.4l1.9-0.3
					c0.3-0.1,0.6,0,0.8,0.1s0.5,0.3,0.6,0.6l8.8,15.1l0.5-0.1C36.7,38,37.2,38.3,37.3,39.1L37.3,39.1z M27.7,33l-3-5.2l-1,6L27.7,33
					L27.7,33z"/>
			</g>
			<g>
				<path class="st0" d="M74.8,85.6l-48.2,8.5c-3.7,0.7-7.3-2-8-6L7.1,22.8c-0.7-3.9,1.8-7.7,5.5-8.3L60.8,6c3.7-0.7,7.3,2,8,6
					l11.5,65.4C81,81.2,78.5,85,74.8,85.6L74.8,85.6z M13,17.1c-2.3,0.4-3.9,2.8-3.4,5.2l11.5,65.4c0.4,2.5,2.7,4.1,5,3.7l48.2-8.5
					c2.3-0.4,3.9-2.8,3.4-5.2L66.2,12.4c-0.4-2.5-2.7-4.1-5-3.7L13,17.1z"/>
			</g>
			<g>
				<g>
					<path class="st0" d="M20.2,52.9c-0.7,0-1.3-0.5-1.4-1.2c-0.1-0.8,0.4-1.5,1.1-1.6l43.8-7.7c0.8-0.1,1.5,0.4,1.6,1.1
						s-0.4,1.5-1.1,1.6l-43.8,7.7C20.4,52.9,20.3,52.9,20.2,52.9z"/>
				</g>
				<g>
					<path class="st0" d="M21.4,58.9c-0.7,0-1.3-0.5-1.4-1.2c-0.1-0.8,0.4-1.5,1.1-1.6L65,48.3c0.8-0.1,1.5,0.4,1.6,1.1
						c0.1,0.8-0.4,1.5-1.1,1.6l-43.8,7.8C21.6,58.9,21.5,58.9,21.4,58.9z"/>
				</g>
				<g>
					<path class="st0" d="M22.4,64.9c-0.7,0-1.3-0.5-1.4-1.2c-0.1-0.8,0.4-1.5,1.1-1.6L66,54.4c0.8-0.1,1.5,0.4,1.6,1.1
						s-0.4,1.5-1.1,1.6l-43.8,7.7C22.6,64.9,22.5,64.9,22.4,64.9z"/>
				</g>
			</g>
			<g>
				<path class="st0" d="M101.4,36.2c0.2,0.3,0.2,0.6,0.2,0.9l-0.3,3.7c0,0.5-0.2,0.8-0.6,1.1s-0.7,0.4-1.2,0.4l-12.3-1.1
					c-0.4,0-0.8-0.2-1-0.5c-0.3-0.3-0.4-0.7-0.3-1.1L86,39c0.1-0.6,0.3-1.1,0.7-1.6l10.5-12.6l-6.3-0.5l-0.2,1.9
					c-0.1,0.8-0.5,1.2-1.3,1.2l-1.1-0.1c-0.8-0.1-1.1-0.5-1.1-1.4l0.3-3.8c0-0.5,0.2-0.8,0.6-1.1c0.3-0.3,0.7-0.4,1.2-0.3l11.8,1
					c0.5,0,0.8,0.2,1.1,0.5c0.3,0.3,0.4,0.7,0.3,1.1l-0.1,0.6c-0.1,0.6-0.3,1.1-0.7,1.6L91.3,38.1l6.8,0.6l0.2-1.8
					c0-0.4,0.2-0.7,0.4-0.9c0.2-0.2,0.5-0.3,0.9-0.3l1.1,0.1C101,35.8,101.3,36,101.4,36.2L101.4,36.2z"/>
			</g>
			<g>
				<g>
					<path class="st0" d="M99.1,50.6c0,0-0.1,0-0.1,0l-24.7-2.1c-0.8-0.1-1.4-0.7-1.3-1.5c0.1-0.8,0.8-1.3,1.5-1.3l24.7,2.1
						c0.8,0.1,1.4,0.7,1.3,1.5C100.4,50.1,99.8,50.6,99.1,50.6z"/>
				</g>
				<g>
					<path class="st0" d="M98.7,56.7c0,0-0.1,0-0.1,0l-23.1-2c-0.8-0.1-1.3-0.8-1.3-1.5c0.1-0.8,0.8-1.4,1.5-1.3l23.1,2
						c0.8,0.1,1.3,0.8,1.3,1.5C100,56.2,99.4,56.7,98.7,56.7z"/>
				</g>
				<g>
					<path class="st0" d="M98.1,62.8c0,0-0.1,0-0.1,0l-21.3-1.9c-0.8-0.1-1.3-0.8-1.3-1.5c0.1-0.8,0.8-1.3,1.5-1.3L98.2,60
						c0.8,0.1,1.3,0.8,1.3,1.5C99.4,62.3,98.8,62.8,98.1,62.8z"/>
				</g>
			</g>
			<g>
				<path class="st0" d="M105.7,11.9L66.8,8.5l0.5,2.8l38.2,3.3c2.4,0.2,4.1,2.4,3.9,4.9l-5.8,66.1c-0.2,2.5-2.3,4.4-4.7,4.2
					l-38.6-3.4l-10.4,1.8l0,0l48.7,4.3c3.8,0.3,7.1-2.6,7.5-6.6l5.8-66.1C112.3,15.7,109.5,12.2,105.7,11.9L105.7,11.9z"/>
			</g>
		</g>
	</g>
</g>
</svg>
