<?xml version="1.0" encoding="utf-8"?>
<!-- Generator: Adobe Illustrator 26.1.0, SVG Export Plug-In . SVG Version: 6.00 Build 0)  -->
<svg version="1.1" id="Layer_1" xmlns="http://www.w3.org/2000/svg" xmlns:xlink="http://www.w3.org/1999/xlink" x="0px" y="0px"
	 viewBox="0 0 105 105" style="enable-background:new 0 0 105 105;" xml:space="preserve">
<style type="text/css">
	.st0{fill:#F8BE15;}
</style>
<g id="a">
</g>
<g>
	<path class="st0" d="M77.4,61.1H28.8c-0.8,0-1.5-0.7-1.5-1.5s0.7-1.5,1.5-1.5h48.6c0.8,0,1.5,0.7,1.5,1.5S78.2,61.1,77.4,61.1z"/>
</g>
<g>
	<path class="st0" d="M77.4,49.8H56c-0.8,0-1.5-0.7-1.5-1.5s0.7-1.5,1.5-1.5h21.4c0.8,0,1.5,0.7,1.5,1.5S78.2,49.8,77.4,49.8z"/>
</g>
<g>
	<path class="st0" d="M94.6,21.6H57.2v2.5h37.4c3,0,5.4,2.4,5.4,5.4v44.7H5V29.5c0-3,2.4-5.4,5.4-5.4H42v-2.5H10.4
		c-4.3,0-7.9,3.5-7.9,7.9v51.8c0,4.4,3.5,7.9,7.9,7.9h35.5V98h-8.8c-0.7,0-1.3,0.6-1.3,1.3s0.6,1.3,1.3,1.3h30.6
		c0.7,0,1.3-0.6,1.3-1.3S68.4,98,67.7,98h-8.8v-8.7h35.5c4.4,0,7.9-3.6,7.9-7.9V29.5C102.5,25.1,98.9,21.6,94.6,21.6L94.6,21.6z
		 M56.5,98h-8v-8.7h8V98z M100,81.4c0,3-2.4,5.4-5.4,5.4H10.4c-3,0-5.4-2.4-5.4-5.4v-4.5h94.9L100,81.4L100,81.4z"/>
	<path class="st0" d="M67.7,100.7H37.1c-0.8,0-1.4-0.7-1.4-1.4s0.7-1.4,1.4-1.4h8.7v-8.5H10.4c-2.2,0-4.2-0.8-5.7-2.3
		s-2.3-3.5-2.3-5.7V29.5c0-4.4,3.6-8,8-8h31.7v2.8H10.4c-2.9,0-5.3,2.4-5.3,5.3v44.6h94.8V29.5c0-2.9-2.4-5.3-5.3-5.3H57.1v-2.8
		h37.5c2.2,0,4.2,0.9,5.7,2.4c1.4,1.5,2.2,3.5,2.1,5.6v51.9c0,4.4-3.6,8-8,8H59v8.5h8.7c0.8,0,1.4,0.7,1.4,1.4
		S68.5,100.7,67.7,100.7z M37.1,98.1c-0.6,0-1.2,0.5-1.2,1.2s0.5,1.2,1.2,1.2h30.6c0.6,0,1.2-0.5,1.2-1.2s-0.5-1.2-1.2-1.2h-8.9v-9
		h35.6c4.3,0,7.8-3.5,7.8-7.8V29.5c0.1-2-0.6-3.9-2-5.4c-1.4-1.5-3.5-2.4-5.5-2.4H57.3V24h37.3c3,0,5.5,2.5,5.5,5.5v44.8H4.9V29.5
		c0-3,2.5-5.5,5.5-5.5h31.5v-2.2H10.4c-4.3,0-7.8,3.5-7.8,7.8v51.8c0,4.4,3.4,7.8,7.8,7.8H46v9H37.1z M56.6,98.1h-8.2v-9h8.2V98.1z
		 M48.6,97.9h7.8v-8.5h-7.8V97.9z M94.6,86.9H10.4c-3,0-5.5-2.5-5.5-5.5v-4.6H100l0.1,4.6C100.1,84.4,97.6,86.9,94.6,86.9z M5.1,77
		v4.4c0,2.9,2.4,5.3,5.3,5.3h84.2c2.9,0,5.3-2.4,5.3-5.3L99.8,77H5.1z"/>
</g>
<g>
	<g>
		<path class="st0" d="M29.1,60.6c-0.4,0.1-0.8,0-1.1-0.2c-0.5-0.3-0.7-0.8-0.7-1.3l0.3-12.8c0-0.2,0.1-0.5,0.2-0.7l18.6-32.3
			c0.4-0.7,1.3-0.9,2-0.5L59.1,19c0.7,0.4,0.9,1.3,0.5,2L40.9,53.2c-0.1,0.2-0.3,0.4-0.5,0.5l-11,6.6C29.4,60.6,29.2,60.6,29.1,60.6
			L29.1,60.6z M30.5,46.8l-0.2,9.8l8.4-5.1l17.8-30.8L48.4,16L30.5,46.8L30.5,46.8z"/>
		<path class="st0" d="M28.8,60.8c-0.3,0-0.6-0.1-0.8-0.3c-0.5-0.3-0.8-0.8-0.8-1.4l0.3-12.8c0-0.2,0.1-0.5,0.2-0.8l18.6-32.3
			c0.4-0.7,1.4-1,2.2-0.5l10.7,6.2c0.4,0.2,0.6,0.6,0.7,1c0.1,0.4,0,0.8-0.2,1.2L41,53.3c-0.1,0.2-0.3,0.4-0.6,0.5l-10.9,6.6
			c0,0.2-0.2,0.3-0.4,0.4C29,60.8,28.9,60.8,28.8,60.8z M47.6,12.7c-0.1,0-0.2,0-0.3,0c-0.3,0.1-0.6,0.3-0.8,0.6L27.9,45.7
			c-0.1,0.2-0.2,0.5-0.2,0.6l-0.3,12.8c0,0.3,0.1,0.9,0.6,1.2c0.3,0.2,0.7,0.3,1,0.2l0,0c0.1,0,0.2,0,0.2-0.2v-0.1l0.1,0l11-6.6
			c0.2-0.1,0.4-0.3,0.5-0.4l18.7-32.2c0.2-0.3,0.2-0.7,0.1-1c-0.1-0.3-0.3-0.6-0.6-0.8l-10.7-6.2C48.1,12.8,47.9,12.7,47.6,12.7z
			 M30.2,56.8l0.2-10.1l0,0l18-30.9l0.1,0.1l8.2,4.8l-0.1,0.1L38.8,51.6L30.2,56.8z M30.6,46.8l-0.2,9.5l8.2-5l17.7-30.7l-7.9-4.6
			L30.6,46.8z"/>
	</g>
	<g>
		<path class="st0" d="M40.1,54c-0.4,0-0.8,0-1.1-0.2l-10.7-6.2c-0.7-0.4-0.9-1.3-0.5-2s1.3-0.9,2-0.5l10.7,6.2
			c0.7,0.4,0.9,1.3,0.5,2C40.7,53.6,40.4,53.8,40.1,54L40.1,54z"/>
		<path class="st0" d="M40.1,54.1c-0.4,0-0.8,0-1.2-0.2l-10.7-6.2c-0.4-0.2-0.6-0.6-0.7-1c-0.1-0.4,0-0.8,0.2-1.2
			c0.4-0.7,1.4-1,2.2-0.5l10.7,6.2c0.7,0.4,1,1.4,0.5,2.2l0,0C40.8,53.7,40.5,53.9,40.1,54.1L40.1,54.1L40.1,54.1z M29,45
			c-0.5,0-0.9,0.2-1.1,0.6c-0.2,0.3-0.2,0.7-0.1,1c0.1,0.3,0.3,0.6,0.6,0.8l10.7,6.2c0.3,0.2,0.6,0.2,1,0.2c0.3-0.2,0.6-0.4,0.8-0.7
			c0.4-0.7,0.2-1.5-0.5-1.8l-10.7-6.2C29.5,45.1,29.3,45,29,45z"/>
	</g>
	<g>
		<path class="st0" d="M58.7,21.5c-0.4,0.1-0.8,0.1-1.1-0.1l-10.7-6.2c-0.7-0.4-0.9-1.3-0.5-2l4.6-8c0.4-0.7,1.3-0.9,2-0.5l10.7,6.2
			c0.3,0.2,0.6,0.5,0.7,0.9s0,0.8-0.2,1.1l-4.6,8C59.4,21.2,59.1,21.4,58.7,21.5L58.7,21.5z M49.7,13.4l8.1,4.7l3.2-5.5l-8.1-4.7
			C52.8,8,49.7,13.4,49.7,13.4z"/>
		<path class="st0" d="M58.2,21.7c-0.3,0-0.5-0.1-0.7-0.2l-10.7-6.2c-0.7-0.4-1-1.4-0.5-2.2l4.6-8c0.2-0.4,0.6-0.6,1-0.7
			c0.4-0.1,0.8,0,1.2,0.2l10.7,6.2c0.3,0.2,0.6,0.5,0.8,1c0.1,0.4,0,0.8-0.2,1.2l-4.6,8c-0.2,0.3-0.5,0.6-1,0.7l0,0
			C58.5,21.7,58.4,21.7,58.2,21.7z M52.2,4.6c-0.1,0-0.2,0-0.3,0c-0.3,0.1-0.6,0.3-0.8,0.6l-4.6,8c-0.4,0.7-0.2,1.5,0.5,1.8
			l10.7,6.2c0.3,0.2,0.7,0.2,1,0.1l0,0c0.4-0.1,0.6-0.3,0.8-0.5l4.6-8c0.2-0.3,0.3-0.7,0.2-1c-0.1-0.4-0.4-0.7-0.6-0.8L52.9,4.8
			C52.7,4.7,52.5,4.6,52.2,4.6z M57.8,18.3l-0.1-0.1l-8.2-4.8l0.1-0.1c0.9-1.6,3.1-5.4,3.2-5.5l0.1-0.1l8.3,4.8l-0.1,0.1L57.8,18.3z
			 M49.9,13.4l7.9,4.6l3.1-5.3l-7.9-4.6C52.6,8.6,51,11.4,49.9,13.4z"/>
	</g>
</g>
</svg>
